<?xml version="1.0" encoding="utf-8"?>
<!-- Generator: Adobe Illustrator 16.0.0, SVG Export Plug-In . SVG Version: 6.00 Build 0)  -->
<!DOCTYPE svg PUBLIC "-//W3C//DTD SVG 1.1//EN" "http://www.w3.org/Graphics/SVG/1.1/DTD/svg11.dtd">
<svg version="1.1" xmlns="http://www.w3.org/2000/svg" xmlns:xlink="http://www.w3.org/1999/xlink" x="0px" y="0px"
	 width="288.189px" height="45.778px" viewBox="0 0 288.189 45.778" enable-background="new 0 0 288.189 45.778"
	 xml:space="preserve">
<g id="Layer_2">
</g>
<g id="Layer_1">
	<g>
		<path fill="#222221" d="M27.867,40.256l0.096,0.144v0.048c0.192,0.288,0.288,0.48,0.336,0.672l0.048,0.24v0.864
			c-0.048,0.288-0.048,0.48-0.096,0.624l-0.096,0.192v0.624c0,0.384-0.048,0.528-0.097,0.672c-0.048,0.096-0.191,0.24-0.432,0.384
			s-0.479,0.192-0.768,0.192l-0.433,0.048c-0.288,0.096-0.528,0.048-0.768,0l-0.336-0.096l-0.145,0.048
			c-0.336,0.144-0.479,0.192-0.576,0.144l-0.144-0.048l-0.672,0.048l-0.433,0.048l-1.392-0.048c-0.288,0-0.528,0-0.624-0.048
			l-0.145-0.048l-0.672,0.048c-0.288,0-0.576,0.048-0.816,0L19.37,44.96h-0.048c-0.336,0.144-0.528,0.192-0.672,0.144l-0.24-0.048
			l-0.624-0.048l-0.048,0.048c-0.336,0.192-0.48,0.24-0.624,0.24h-1.057c-0.336,0-0.527,0-0.672-0.096l-0.191-0.144l-0.576,0.048
			c-0.24,0.144-0.48,0.24-0.721,0.24c-0.239,0-0.432-0.048-0.576-0.096l-0.191-0.048h-0.384l-1.2-0.096l-0.48,0.192
			c-0.288,0.096-0.528,0.048-0.672,0l-0.24-0.096l-0.576,0.048l-1.104,0.048l-0.385-0.528l-0.239,0.576l-0.673-0.048
			c-0.287,0-0.527,0.144-0.863,0.096l-2.305-0.192l-0.384,0.048c-0.336,0-0.528,0-0.72-0.048l-0.24-0.096l-0.624-0.048
			c-0.24,0-0.48,0-0.672-0.096c-0.192-0.096-0.288-0.192-0.337-0.384l-0.048-0.24L0.84,43.472l-0.048-1.296
			c-0.048-0.336-0.048-0.48-0.048-0.72c0-0.24,0.048-0.384,0.144-0.528l0.096-0.192l0.385-0.624c0.144-0.288,0.336-0.48,0.432-0.576
			l0.144-0.192l0.48-0.48l0.624-0.768l0.288-0.288l0.096-0.144c0.145-0.288,0.288-0.48,0.48-0.72l0.432-0.432
			c0.097-0.288,0.192-0.48,0.288-0.624l0.192-0.24l0.432-0.432c0.24-0.24,0.433-0.336,0.672-0.48l0.288-0.192l0.24-0.288
			l0.624-0.912l0.048-0.336c0.048-0.336,0.145-0.432,0.24-0.624l0.096-0.24c0.097-0.24,0.192-0.432,0.337-0.528l0.239-0.192
			l0.624-0.912l0.097-0.144c0.144-0.288,0.288-0.48,0.479-0.624l0.24-0.24c0.048-0.24,0.144-0.384,0.24-0.576
			c0.096-0.192,0.24-0.288,0.432-0.384l0.288-0.096l0.576-0.96v-0.048c0.096-0.288,0.144-0.528,0.24-0.624l0.144-0.144l0.48-0.624
			c0.096-0.288,0.191-0.48,0.336-0.576l0.192-0.144l0.287-0.192l0.049-0.096c0.144-0.336,0.336-0.528,0.527-0.576l0.24-0.096
			l0.192-0.336l0.527-0.576l0.337-0.384c0.144-0.192,0.239-0.48,0.527-0.624l0.912-0.432l-0.288-0.384l0.048-0.192
			c0.097-0.288,0.24-0.528,0.337-0.672l0.144-0.192l0.432-0.432l0.288-0.432l0.145-0.336l0.288-0.384l0.24-0.576
			c0.096-0.288,0.191-0.48,0.336-0.624l0.144-0.144l0.672-0.816l0.624-1.104l0.24-0.288l-0.096-0.48l-0.528-0.24l-0.72,0.144H17.45
			l-0.096,0.048c-0.336,0.096-0.576,0.048-0.816-0.048l-0.336-0.096l-0.096,0.048c-0.337,0.144-0.528,0.144-0.624,0.096
			l-0.192-0.048l-0.432-0.048h-0.625l-0.96,0.048h-0.144c-0.288,0.048-0.576,0.048-0.864,0.048h-0.624
			c-0.288,0-0.528-0.048-0.72-0.096l-0.24-0.048h-0.288c-0.288,0-0.576,0.048-0.624-0.048l-0.145-0.48l-0.239,0.48
			c-0.097,0.24-0.48,0.096-0.624,0.048l-0.145-0.048H8.521c-0.288,0.048-0.624,0.048-0.912,0l-0.528-0.096H6.313l-0.48,0.048H5.689
			c-0.288,0.096-0.576,0.096-0.864,0.096h-0.48l-0.72-0.096l-0.528-0.048L2.617,14.67H2.424c-0.288,0.096-0.576,0.096-0.912,0.048
			H1.464c-0.288-0.048-0.528-0.144-0.672-0.192C0.6,14.43,0.457,14.382,0.36,14.19c-0.096-0.24-0.144-0.432-0.191-0.72l-0.048-0.48
			l0.048-1.104l-0.097-0.432c-0.096-0.336-0.096-0.624,0-0.912c0.097-0.288,0.192-0.48,0.336-0.672
			c0.145-0.144,0.337-0.24,0.528-0.192l0.288,0.048l0.288-0.096c0.336-0.096,0.624-0.096,0.96,0l0.433,0.096L3.384,9.87h0.624
			l0.528,0.048h0.912L5.592,9.87c0.673,1.392,0.48-0.048,0.769-0.096l0.336-0.048h0.384l0.145-0.048
			c0.288-0.048,0.479-0.048,0.624-0.048h0.239l0.769-0.048c0.288-0.048,0.528-0.048,0.72,0l0.24,0.096l0.24-0.048
			c0.288-0.048,0.528-0.048,0.672-0.048l0.24,0.048l0.672,0.048l0.24-0.048c0.288-0.048,0.576-0.048,0.864-0.048h0.527l0.673,0.048
			c0.287-0.048,0.527-0.048,0.72-0.048l0.336,0.048l0.48,0.096l0.479-0.048l0.145-0.048c0.287-0.096,0.575-0.096,0.912-0.048
			l0.72,0.144c0.24-0.144,0.384-0.192,0.576-0.192c0.191,0,0.384,0.048,0.576,0.096l0.288,0.096l0.432,0.48l0.096-0.576
			c0.048-0.384,0.576,0,0.721,0.048l0.191,0.096l0.48-0.048l0.24-0.048c0.288-0.048,0.624,0.048,0.912,0.096l0.575,0.096
			c0.192-0.096,0.385-0.144,0.528-0.192c0.192-0.048,0.384-0.048,0.624-0.048l0.336,0.048l0.48-0.096
			c0.288-0.048,0.528-0.048,0.72,0.048l0.288,0.144h0.48c0.336,0,0.527,0,0.72,0.096c0.192,0.096,0.336,0.192,0.384,0.288
			l0.097,0.144h0.048c0.24,0.288,0.288,0.576,0.288,0.912v1.2c0.048,0.336,0.048,0.624-0.048,0.912l-0.049,0.096
			c-0.096,0.336-0.191,0.48-0.336,0.624l-0.144,0.192l-0.048,0.096c-0.145,0.288-0.288,0.48-0.433,0.576l-0.191,0.144
			c-0.097,0.336-0.288,0.528-0.433,0.625l-0.24,0.144L25.85,15.87c-0.191,0.24-0.288,0.432-0.479,0.624l-0.24,0.24l-0.576,0.672
			l-0.192,0.24c-0.191,0.24-0.287,0.384-0.384,0.48l-0.144,0.096l-0.288,0.432l-0.048,0.048c-0.049,0.336-0.097,0.576-0.24,0.672
			l-0.192,0.192L22.73,19.95l-0.384,0.432l-0.24,0.528c-0.144,0.336-0.288,0.48-0.384,0.576L21.53,21.63l-0.048,0.144
			c-0.096,0.336-0.192,0.48-0.336,0.624l-0.192,0.192l-0.336,0.384l-0.432,0.48l-0.288,0.432l-0.145,0.24l-0.479,0.48l-0.096,0.144
			c-0.145,0.24-0.24,0.432-0.385,0.576l-0.191,0.192l-0.336,0.384l-0.288,0.576c-0.097,0.288-0.288,0.528-0.48,0.768l-0.432,0.576
			l-0.288,0.288l-0.288,0.384l-0.048,0.096c-0.097,0.288-0.145,0.48-0.24,0.576l-0.145,0.192H15.53c-0.385,0,0.191,0.576,0.048,0.72
			l-0.24,0.192v0.144c-0.096,0.384-0.288,0.576-0.528,0.816l-0.432,0.384c-0.048,0.288-0.096,0.432-0.288,0.576l-0.24,0.144
			l-0.096,0.192c-0.145,0.288-0.336,0.48-0.528,0.72l-0.384,0.432l-0.384,0.672l-0.336,0.432l-0.576,0.768l-0.769,0.768
			l-0.048,0.096c-0.144,0.336-0.288,0.48-0.48,0.672l-0.287,0.24l-0.049,0.048c-0.191,0.24-0.336,0.384-0.479,0.48L9.241,38
			l-0.479,0.336l-0.385,0.528l-0.336,0.384l0.288,0.816L9,40.256l0.097-0.048c0.288-0.096,0.527-0.144,0.72-0.096l0.288,0.048
			l0.624-0.048l0.96,0.096l0.433,0.048h0.048c0.288-0.048,0.576-0.096,0.768-0.096l0.288,0.048l0.48-0.096h0.096
			c0.336-0.048,0.624,0.72,0.769,0.576l0.336-0.384l0.191-0.048c0.288,0,0.48,0.048,0.624,0.048h0.192
			c0.288-0.096,0.528-0.096,0.864-0.048l0.815,0.096l0.576-0.096h0.385l0.527-0.096c0.24-0.144,0.433-0.192,0.576-0.144l0.24,0.048
			l0.096-0.048c0.288-0.096,0.528-0.096,0.721-0.048h0.288l1.199-0.192l0.192-0.048c0.336-0.048,0.528,0,0.672,0.096l0.24,0.096
			l0.576-0.096l0.144-0.048c0.336-0.096,0.576-0.096,0.769-0.048l0.288,0.048h0.624c0.336,0,0.528,0,0.72,0.048l0.24,0.096
			l0.528,0.096C27.531,40.064,27.819,40.16,27.867,40.256z"/>
		<path fill="#222221" d="M52.68,45.489c-0.336,0-0.527,0-0.72-0.096l-0.288-0.096h-0.096c-0.288,0.096-0.528,0.144-0.624,0.144
			h-0.48c-0.288,0.048-0.576,0.096-0.864,0.048l-0.576-0.048H48.84c-0.288,0-0.528,0-0.672-0.048h-0.336
			c-0.288,0.048-0.769,0.336-0.864,0.096l-0.288-0.576l-0.576,0.528c-0.24,0.24-0.48-0.096-0.576-0.144l-0.192-0.048h-0.048
			c-0.288,0.048-0.576,0.048-0.768,0l-0.288-0.048l-1.057-0.144l-0.191,0.096c-0.288,0.144-0.433,0.24-0.528,0.24
			s-0.288-0.048-0.576-0.096l-0.288-0.048c-0.288-0.048-0.479-0.096-0.576-0.144l-0.479-0.24c-0.192-0.144-0.24-0.288-0.288-0.432
			l-0.048-0.24L40.103,44c-0.096-0.288-0.191-0.576-0.144-0.912l0.048-0.48c-0.048-0.24-0.048-0.48,0.048-0.768l0.145-0.336
			c-0.097-0.24-0.097-0.432-0.048-0.624l0.144-0.24L40.2,40.304c-0.097-0.288-0.145-0.48-0.145-0.624l0.048-0.192l0.145-0.624
			c-0.096-0.288-0.096-0.528-0.048-0.72l0.048-0.336l-0.096-0.624c-0.097-0.288,0.815-0.625,0.672-0.672l-0.672-0.24v-0.048
			c-0.097-0.288-0.145-0.528-0.145-0.672v-0.24l0.145-0.672l-0.049-0.096c-0.096-0.336-0.144-0.528-0.096-0.624l0.096-0.192
			l-0.096-0.24c-0.096-0.288-0.096-0.48-0.096-0.72v-0.864l0.048-0.432l0.096-0.912l0.048-0.624c0-0.288-0.048-0.432,0-0.624
			l0.049-0.192l0.096-0.288L40.2,28.687c-0.048-0.336-0.097-0.528-0.097-0.816v-0.336l0.097-0.624l-0.048-0.24
			c-0.097-0.288-0.097-0.48-0.097-0.768c0-0.24,0.097-0.384,0.145-0.576l0.048-0.192l-0.192-1.248v-0.048
			c-0.048-0.288-0.096-0.48-0.048-0.672l0.048-0.192l0.145-0.72l-0.145-0.432l-0.096-0.432c-0.096-0.288-0.048-0.48,0-0.672
			l0.096-0.288l-0.144-0.576c-0.048-0.24-0.048-0.528,0-0.816l0.048-0.768l0.096-0.48c-0.048-0.24-0.24-0.624,0-0.72l0.769-0.384
			h-0.721c-0.288,0-0.144-0.576-0.096-0.72l0.048-0.24l-0.048-0.96v-0.144c-0.048-0.288-0.048-0.528,0-0.768l0.048-0.384v-0.624
			l-0.048-0.96v-0.96c0-0.384,0.048-0.576,0.145-0.72c0.096-0.192,0.239-0.288,0.384-0.384c0.144-0.096,0.288-0.144,0.479-0.192
			l0.288-0.048h0.385c0.287,0,0.527-0.048,0.72,0l0.24,0.048l0.768-0.048c0.288-0.096,0.528-0.144,0.864-0.048l0.48,0.144
			c0.336,0.096,0.479,0.192,0.624,0.288c0.144,0.096,0.288,0.336,0.288,0.72v0.528l-0.049,0.624l0.049,1.104l-0.097,0.624
			l-0.048,0.48l0.048,0.528l0.097,0.288c0.096,0.288,0.096,0.432,0.096,0.624c0,0.144,0,0.288-0.048,0.528l-0.048,0.336
			l-0.145,0.624l0.048,0.336c0.048,0.336,0.048,0.576,0,0.768l-0.096,0.336l-0.192,0.432l-0.096,0.336l0.096,1.104l0.048,0.432
			l0.049,0.672v0.048c0.048,0.288,0.048,0.528,0.048,0.624l-0.048,0.192l0.048,0.528l0.048,0.144c0.096,0.288,0.048,0.576,0,0.912
			l-0.096,0.672l-0.049,0.528l0.049,0.48l0.096,0.384l0.096,0.72c0.048,0.288-0.768,0.48-0.576,0.624l0.48,0.288v1.2l-0.048,0.336
			c0.048,0.288,0.144,0.624,0.096,0.912l-0.096,0.624l-0.097,0.336l0.097,0.576l0.048,0.048c0.048,0.288,0,0.576-0.048,0.864
			l-0.048,0.624l-0.049,0.528l0.049,0.048c0.144,0.336,0.191,0.576,0.191,0.72l-0.048,0.24l-0.144,0.576v0.288l-0.097,1.248v0.432
			c0,0.24,0,0.432-0.048,0.576l-0.096,0.24l-0.048,0.72l0.144,0.768l0.096,0.48h0.049c0.288,0.096,0.527,0.192,0.672,0.288
			l0.191,0.192l0.624,0.144h1.104l0.624,0.048l0.096-0.048c0.288-0.096,0.528-0.096,0.816-0.144l0.336-0.048
			c0.336-0.048,0.576,0,0.72,0.048l0.192,0.096l0.624-0.048h0.048c0.288-0.096,0.528-0.144,0.721-0.144h0.768
			c0.288,0,0.528,0,0.72,0.048c0.192,0.048,0.337,0.144,0.385,0.192l0.096,0.096l0.048,0.528c0,0.384,0.576-0.672,0.816-0.576
			l0.384,0.144l0.192-0.048c0.336-0.048,0.576-0.048,0.672,0l0.191,0.048l0.721-0.096h0.72c0.336,0,0.48,0,0.672,0.096l0.192,0.096
			l0.768-0.144l0.528-0.144l0.24-0.048c0.288-0.048,0.48,0,0.576,0h0.144l1.393,0.096h1.152l0.432,0.048
			c0.336,0,0.528,0.144,0.624,0.528l0.192,0.528l0.048,0.096c0.096,0.288,0.191,0.48,0.191,0.768v0.336c0,0.336,0.049,0.528,0,0.624
			l-0.048,0.192l-0.048,0.624c0,0.384-0.096,0.576-0.24,0.672c-0.191,0.144-0.288,0.144-0.384,0.192l-0.191,0.048l-0.145,0.048
			c-0.288,0.144-0.528,0.24-0.864,0.24h-0.432c-0.288,0-0.48,0.048-0.576,0h-0.145l-0.72-0.192l-0.096,0.048
			c-0.336,0.096-0.576,0.096-0.769,0.048l-0.288-0.048l-0.432-0.144l-0.672,0.048h-0.048c-0.336,0.048-0.528,0.048-0.624,0
			l-0.192-0.048l-1.2-0.096c-0.288,0.096-0.528,0.144-0.672,0.096l-0.192-0.048h-0.576l-0.575,0.192l-0.433,0.048l-0.576,0.096
			l-0.96-0.048H52.68z"/>
		<path fill="#222221" d="M106.442,44.289c-0.049,0.192-0.24,0.288-0.576,0.432l-0.145,0.048c-0.288,0.096-0.576,0.144-0.768,0.096
			l-0.288-0.096l-1.057,0.144h-0.288c-0.287,0-0.527,0.048-0.72,0c-0.144,0-0.288-0.048-0.384-0.144l-0.192-0.144
			c-0.288-0.048-0.384-0.096-0.479-0.24l-0.145-0.192l-0.144-0.144c-0.192-0.24-0.336-0.384-0.433-0.576l-0.239-0.72l-0.433-0.912
			l-0.191-0.288c-0.192-0.288-0.528-0.48-0.433-0.72l0.145-0.288l-0.24-0.096c-0.336-0.144-0.336-0.72-0.336-0.96V39.2l-0.048-0.048
			c-0.192-0.24-0.288-0.432-0.337-0.576l-0.096-0.192l-0.528-0.336l-0.432,0.048c-0.288,0.048-0.576,0-0.816-0.048l-0.384-0.096
			l-1.008,0.096l-0.24,0.096c-0.288,0.096-0.576,0.144-0.864,0.144h-0.144c-0.288,0-0.528,0.048-0.672,0l-0.24-0.048h-0.912
			l-0.912,0.048h-0.096c-0.288,0.048-0.48,0.096-0.673,0.048l-0.288-0.048l-0.768,0.096l-0.912-0.048H88.2l-1.056-0.144
			l-0.912,0.096c-0.288,0.048-0.528,0.048-0.816,0l-0.768-0.096c-0.288,0-0.48,0.048-0.673,0l-0.72-0.24l-0.72-0.048
			c-0.24-0.048-0.433-0.096-0.672-0.192l-0.336-0.096l-0.961,0.096l-0.576,0.336l-0.384,0.576v0.096c0,0.336-0.096,0.576-0.24,0.864
			l-0.432,0.72l-0.096,0.384l-0.288,0.576l-0.145,0.576l-0.144,0.48l-0.096,0.672c-0.049,0.288-0.145,0.48-0.192,0.672
			c-0.048,0.144-0.145,0.288-0.24,0.384l-0.144,0.096l-0.433,0.48l-0.048,0.048c-0.192,0.288-0.336,0.432-0.479,0.528
			c-0.097,0.096-0.24,0.144-0.385,0.096l-0.191-0.048l-0.672,0.144c-0.337,0.096-0.625,0.048-0.912,0l-0.864-0.144
			c-0.288,0.192-0.433,0.24-0.624,0.192l-0.288-0.048l-0.336-0.096c-0.336-0.096-0.528-0.24-0.624-0.432
			c-0.097-0.192-0.145-0.432-0.049-0.816l0.049-0.192c0.096-0.336,0.239-0.528,0.384-0.672l0.192-0.192
			c0-0.288,0.096-0.432,0.239-0.576l0.192-0.192v-0.096c0-0.384,0.048-0.528,0.144-0.672l0.097-0.192l0.048-0.192
			c0.096-0.336,0.191-0.528,0.288-0.672l0.191-0.192l0.097-0.432c0.048-0.288,0.144-0.528,0.239-0.672l0.145-0.24l0.336-0.528
			l0.048-0.144c0.048-0.336,0.145-0.576,0.288-0.672l0.192-0.192l0.479-0.096c0.336-0.096-0.336-0.528-0.239-0.624l0.144-0.192
			l0.048-0.24c0.097-0.288,0.24-0.576,0.433-0.816l0.239-0.384l0.097-0.192c0.096-0.336,0.191-0.432,0.239-0.576l0.097-0.144
			l0.048-0.144c0.096-0.336,0.24-0.48,0.384-0.72l0.24-0.336l0.384-1.056l0.097-0.288l0.096-0.144
			c0.144-0.336,0.24-0.48,0.336-0.576l0.144-0.144l0.48-0.528l0.192-1.008l0.096-0.384v-0.096c0.096-0.336,0.24-0.48,0.336-0.624
			l0.144-0.24c0-0.336,0.097-0.528,0.24-0.816l0.433-0.864l0.048-0.192l0.144-0.576c0.048-0.096,0.145-0.24,0.336-0.48l0.48-0.576
			c0-0.288,0.096-0.432,0.192-0.672c0.144-0.24,0.191-0.336,0.336-0.432l0.144-0.096l0.048-0.144
			c0.048-0.288,0.097-0.528,0.24-0.864l0.24-0.576l0.191-0.24l0.097-0.576c-0.048-0.336,0-0.624,0.144-0.912l0.097-0.24
			c0.144-0.288,0.287-0.432,0.336-0.528l0.096-0.144l0.144-0.48l0.049-0.144c0.048-0.336,0.144-0.528,0.239-0.672l0.145-0.24
			l0.24-0.432l0.144-0.576c0.096-0.336,0.145-0.528,0.24-0.72l0.144-0.24l0.288-0.72c0-0.192,0.097-0.336,0.24-0.528l0.24-0.336
			l0.096-0.48v-0.096c0.096-0.336,0.192-0.48,0.288-0.624l0.192-0.192l0.479-0.048c0.288,0-0.384-0.528-0.288-0.72l0.145-0.24
			l0.384-1.152c0.145-0.336,0.24-0.48,0.336-0.528l0.192-0.096l0.384-0.144c0.288-0.144,0.48-0.192,0.769-0.192
			c0.287,0,0.527,0.048,0.72,0.096l0.336,0.048l1.104,0.24c0.336,0.048,0.575,0.144,0.672,0.24c0.096,0.096,0.191,0.24,0.336,0.576
			l0.096,0.192c0.145,0.288,0.24,0.528,0.288,0.672l0.096,0.24l0.145,0.192c0.191,0.288,0.336,0.432,0.384,0.576
			c0.048,0.192,0.048,0.336,0.048,0.576v0.288l0.145,0.528l0.048,0.048c0.24,0.288,0.384,0.432,0.384,0.672v0.288l0.24,0.336
			l0.144,0.336c0.145,0.288,0.24,0.48,0.337,0.72l0.096,0.384l0.144,0.144c0.192,0.24,0.288,0.48,0.288,0.624l0.048,0.24l0.24,0.528
			c0.24,0.24,0.336,0.432,0.336,0.528v0.192l0.097,0.144c0.191,0.24,0.336,0.432,0.336,0.672v0.24l0.479,0.72l0.097,0.096
			c0.191,0.24,0.336,0.384,0.384,0.576l0.048,0.24l0.144,0.24c0.097,0.336,0.192,0.528,0.24,0.864l0.097,0.528l0.287,0.336
			l0.192,0.288c0.192,0.24,0.336,0.432,0.432,0.768l0.192,0.528l0.096,0.432l0.24,1.008l0.24,0.528v0.048
			c0.096,0.288,0.192,0.432,0.192,0.624l0.048,0.24l0.096,0.096c0.24,0.24,0.336,0.432,0.432,0.672
			c0.097,0.24,0.097,0.384,0.097,0.432v0.144l0.528,0.816c0.144,0.192-0.48,0.72-0.288,0.672l0.527-0.096l0.24,0.576
			c0.145,0.192,0.288,0.384,0.432,0.72l0.192,0.48l0.24,0.384l0.048,0.096c0.144,0.288,0.24,0.528,0.288,0.816l0.144,0.672
			l0.24,0.432l0.288,0.432l0.528,0.816v0.048c0.144,0.288,0.24,0.48,0.24,0.72v0.336l0.048,0.048
			c0.191,0.24,0.384,0.384,0.432,0.576l0.097,0.288l0.191,0.528l0.384,0.48l0.288,0.432c0.145,0.24,0.24,0.528,0.336,0.816
			l0.192,0.768l0.336,0.576l0.96,1.92C106.49,43.953,106.538,44.096,106.442,44.289z M94.537,33.439l0.384-0.336v-0.624L94.873,32
			l-0.048-0.576l-0.336-0.912l-0.24-0.384c-0.145-0.24-0.288-0.432-0.336-0.672l-0.096-0.288l-0.288-0.96
			c-0.192-0.192-0.24-0.336-0.24-0.48v-0.288l-0.192-0.48l-0.384-0.576c-0.145-0.24-0.24-0.48-0.336-0.768l-0.192-0.528
			l-0.048-0.192c-0.144-0.288-0.192-0.48-0.24-0.576l-0.191-0.768l-0.097-0.096c-0.191-0.288-0.288-0.432-0.336-0.672l-0.048-0.24
			l-0.192-0.528l-0.191-0.624l-0.145-0.432c-0.239-0.192-0.384-0.432-0.432-0.816l-0.145-0.72l-0.144-0.48l0.192-0.336
			c0.144-0.288-0.433,0.192-0.528-0.048l-0.384-1.008c-0.097-0.096-0.192-0.336-0.288-0.336c-0.336,0.048-0.721,1.248-0.816,1.44
			l-0.096,0.288l-0.433,0.864l-0.384,0.72l-0.528,0.96l-0.096,0.624l-0.096,0.288l-0.288,0.528v0.24
			c-0.048,0.288-0.097,0.576-0.192,0.768l-0.096,0.288l-0.48,0.912l-0.288,0.432v0.192c0,0.384-0.048,0.576-0.096,0.72l-0.096,0.192
			l-0.192,0.528l-0.096,0.48c-0.048,0.288-0.145,0.528-0.24,0.672l-0.144,0.24v0.144c0,0.384-0.097,0.528-0.192,0.72l-0.145,0.24
			l-0.336,0.48l-0.144,0.48v0.096c-0.048,0.288-0.288,0.624-0.384,0.864l-0.24,0.576l0.096,0.48l0.288,0.432l0.433,0.288
			c0.287-0.096,0.479-0.144,0.815-0.144h0.288c0.288,0,0.528,0.048,0.769,0.096l0.336,0.096l0.624,0.048l1.008,0.048h0.192
			c0.288,0,0.527,0,0.72,0.048l0.288,0.048c0.24-0.096,0.479-0.144,0.816-0.096l0.624,0.096l0.191-0.096
			c0.385-0.144,0.528-0.144,0.721-0.048l0.239,0.096l0.48-0.144h0.192c0.287-0.048,0.527-0.048,0.72-0.048H93l1.056,0.096
			L94.537,33.439z"/>
		<path fill="#222221" d="M118.488,19.518l-0.048-0.24c0-0.288,0.048-0.48,0.096-0.72l0.097-0.288
			c-0.097-0.24-0.192-0.336-0.24-0.576v-1.392l-0.24-1.2l-0.096-0.336l-0.624-0.384l-0.96-0.048l-1.152,0.048l-0.624,0.144
			c-0.24,0.048-0.48,0.096-0.672,0.096h-1.584c-0.816,0-0.624,0.048-0.673-0.048l-0.239-0.48c-0.192,0.144-0.049,0.72-0.673,0.624
			l-0.336-0.048l-0.288-0.048l-0.72-0.096l-0.432,0.048c-0.288,0.048-0.528,0.048-0.721,0.048c-0.144,0-0.336-0.048-0.479-0.144
			c-0.145-0.096-0.24-0.192-0.24-0.48l-0.048-0.384c-0.097-0.336-0.145-0.528-0.145-0.864v-0.72l-0.048-0.72
			c0-0.336,0.048-0.432,0.145-0.624l0.144-0.192c0.145-0.288,0.336-0.528,0.672-0.528h1.057l0.288-0.096
			c0.288-0.096,0.624-0.096,0.912-0.096h1.151l0.864-0.048h0.721c0.287,0,0.575,0,0.863,0.048l0.721,0.048h0.096
			c0.288-0.048,0.48-0.048,0.576-0.048l0.096,0.048l1.2,0.048c0.288-0.192,0.48-0.24,0.769-0.144l0.384,0.096
			c0.24-0.096,0.432-0.144,0.768-0.144h0.673c0.287-0.048,0.575,0,0.863,0h0.24c0.288,0,0.528,0.048,0.721,0.096l0.287,0.048
			l0.097-0.048c0.336-0.144,0.527-0.144,0.672-0.096l0.24,0.096l0.239,0.288c0.192,0.288,0.385-0.528,0.721-0.528h0.191
			c0.288,0,0.528,0.048,0.721,0.096l0.336,0.048l0.479,0.096h1.009c0.288-0.096,0.479-0.144,0.672-0.144h0.912l1.2-0.144
			l0.576,0.048l0.479,0.048l1.104,0.144h0.144h0.721l0.288,0.048l1.248,0.144c0.384,0.048,0.624,0.192,0.672,0.336
			s0.096,0.288,0.096,0.528v0.24l0.048,0.768c0.097,0.24,0.097,0.48,0.048,0.672l-0.096,0.288l-0.048,0.624
			c-0.048,0.288-0.048,0.528-0.096,0.625c-0.048,0.096-0.192,0.192-0.576,0.336h-0.048c-0.336,0.096-0.528,0.192-0.624,0.144
			l-0.192-0.048l-1.008,0.048h-0.097c-0.288,0.048-0.479,0.048-0.624,0.048c-0.144-0.048-0.288-0.048-0.527-0.144l-0.336-0.096
			l-0.337,0.096c-0.287,0.096-0.575,0.096-0.815,0.048l-0.288-0.096l-0.96,0.24c-0.336,0.096-0.528,0.144-0.672,0.096l-0.24-0.048
			l-0.48-0.192c-0.288,0.048-0.576,0.096-0.864,0.048l-0.672-0.096l-0.479,0.288l-0.336,0.288l0.048,0.624v0.672l-0.385,0.288
			c-0.239,0.192,0.48,0.288,0.433,0.624l-0.096,0.48l0.048,0.672l0.048,0.528v0.096c0.048,0.288,0.048,0.528,0,0.72l-0.048,0.288
			l0.096,0.48l0.048,0.528l0.048,0.432v0.144c0,0.288,0,0.576-0.048,0.768l-0.096,0.288l0.096,0.528c0.048,0.384,0,0.48-0.048,0.672
			l-0.144,0.72v0.624l-0.528,0.432h0.479c0.385,0-0.048,0.624-0.144,0.72l-0.096,0.144l0.048,0.72v0.432l0.24,1.056l0.048,0.576
			v0.528l-0.097,0.432l0.097,0.24c0.144,0.384,0.144,0.576,0.096,0.672l-0.048,0.192v0.48l0.048,0.672l-0.048,1.104
			c0.048,0.288,0.048,0.432,0,0.72l-0.096,0.384l0.096,0.288l0.048,0.048c0.145,0.288,0.145,0.576,0.048,0.96l-0.096,0.528
			l0.096,0.24c0.097,0.288,0.145,0.528,0.145,0.624c0,0.096,0,0.192-0.097,0.432l-0.144,0.288l0.288,1.152
			c0.048,0.336,0.048,0.528,0,0.72l-0.096,0.24l0.048,0.048c0.048,0.288,0.096,0.528,0.096,0.72s0,0.432-0.048,0.72l-0.096,0.576
			c0.048,0.288,0.048,0.48,0.048,0.672l-0.048,0.24v0.768c0,0.336-0.049,0.528-0.097,0.72c-0.048,0.24-0.096,0.288-0.144,0.384
			c-0.048,0.096-0.24,0.144-0.576,0.24l-0.336,0.096c-0.288,0.096-0.528,0.096-0.721,0.048h-0.288l-0.384-0.096l-0.144,0.048
			c-0.336,0.144-0.528,0.096-0.769,0.096h-0.384l-0.48-0.048l-0.479-0.096c-0.433-0.096-0.576-0.096-0.624-0.24l-0.048-0.144
			l-0.048-0.576l-0.049-0.912v-0.48l-0.048-0.576l-0.048-0.24c-0.048-0.336-0.096-0.48-0.048-0.672l0.048-0.24
			c-0.048-0.336-0.048-0.48,0-0.72l0.048-0.336v-0.816l-0.048-0.672c-0.144-0.288-0.192-0.528-0.144-0.768l0.048-0.336l-0.048-0.528
			l0.432-0.528c0.192-0.24-0.624-0.384-0.576-0.576l0.096-0.48l0.097-0.624c-0.097-0.336-0.145-0.432-0.097-0.672l0.049-0.288
			l-0.049-0.144c-0.096-0.288-0.144-0.576-0.096-0.912L118.584,32l-0.145-1.056v-0.096c-0.048-0.288-0.048-0.576,0-0.864
			l0.048-0.864v-0.048c0.048-0.288,0.145-0.528,0.192-0.768l0.096-0.336l-0.096-1.008l-0.048-0.192c-0.048-0.288,0-0.528,0-0.624
			l0.048-0.144l0.096-0.768v-0.144c-0.048-0.288-0.096-0.48-0.096-0.72l-0.048-0.288l0.048-0.864l-0.048-0.048
			c-0.097-0.336-0.097-0.528,0-0.768l0.096-0.336v-0.336l-0.144-0.72l-0.097-0.864V19.518z"/>
		<path fill="#222221" d="M178.346,27.535l-0.145,0.288c0.097,0.336,0.145,0.576,0.049,0.72l-0.145,0.24l0.048,0.768
			c0.048,0.288,0,0.48,0,0.624l-0.048,0.192l-0.096,0.528l-0.145,0.48l-0.144,0.576l-0.097,0.432v0.048
			c-0.048,0.288-0.144,0.432-0.239,0.672l-0.097,0.288l-0.048,0.24c-0.048,0.288-0.144,0.528-0.288,0.816l-0.144,0.384l-0.192,0.528
			c-0.096,0.336-0.144,0.528-0.24,0.672c-0.096,0.144-0.191,0.288-0.336,0.384l-0.239,0.144l-0.337,0.816l-0.048,0.048
			c-0.144,0.288-0.288,0.432-0.384,0.528l-0.192,0.144l-0.048,0.144c-0.096,0.288-0.288,0.528-0.479,0.768l-0.097,0.144
			c-0.191,0.24-0.336,0.336-0.479,0.48l-0.24,0.24c-0.144,0.288-0.24,0.48-0.336,0.624l-0.145,0.192l-0.432,0.48
			c-0.192,0.24-0.384,0.432-0.528,0.48l-0.239,0.048l-0.049,0.096c-0.191,0.288-0.384,0.432-0.527,0.528l-0.721,0.432l-0.384,0.288
			l-1.056,0.576l-0.528,0.24l-0.048,0.048c-0.24,0.192-0.528,0.336-0.864,0.384l-0.528,0.096c-0.24,0.192-0.479,0.288-0.672,0.336
			l-0.24,0.048l-0.624,0.288c-0.24,0.144-0.432,0.192-0.576,0.192h-0.239l-0.528,0.096l-0.24,0.048
			c-0.288,0.096-0.479,0.144-0.672,0.096h-0.192l-1.2,0.096l-0.048,0.048c-0.288,0.096-0.576,0.096-0.864,0.096h-1.151
			c-0.288,0-0.576,0.048-0.864,0l-0.721-0.144l-0.048,0.048c-0.336,0.144-0.576,0.192-0.72,0.096l-0.192-0.096l-0.96-0.048h-0.191
			c-0.336-0.048-0.576-0.048-0.673-0.192l-0.096-0.192h-0.24c-0.336,0-0.624-0.048-0.912-0.24l-0.432-0.24
			c-0.288,0-0.48-0.048-0.624-0.144L153,44.433l-0.672-0.288l-0.816-0.384l-0.527-0.336l-0.336-0.24l-0.097-0.048
			c-0.288-0.096-0.479-0.144-0.768-0.336l-0.096-0.048c-0.288-0.192-0.48-0.288-0.576-0.528l-0.145-0.288l-0.048-0.72l-0.384,0.336
			c-0.576,0.528-0.528-0.144-0.624-0.24l-0.097-0.144l-0.432-0.48h-0.048c-0.336-0.144-0.48-0.192-0.624-0.288l-0.192-0.144
			c-0.24-0.24-0.384-0.432-0.479-0.625l-0.192-0.288c-0.192-0.192-0.288-0.336-0.384-0.528l-0.145-0.288l-0.432-0.432l-0.288-0.384
			c-0.192-0.288-0.288-0.432-0.384-0.672c-0.145-0.24-0.192-0.432-0.24-0.576l-0.096-0.192l-0.049-0.048
			c-0.239-0.24-0.384-0.384-0.527-0.72l-0.192-0.432v-0.048c-0.096-0.288-0.192-0.48-0.192-0.672l-0.048-0.24l-0.096-0.144
			c-0.192-0.24-0.624-0.625-0.384-0.816l0.72-0.624h-0.864c-0.288,0-0.191-0.528-0.239-0.72l-0.097-0.288
			c-0.096-0.336-0.096-0.528-0.096-0.768v-0.336l-0.192-0.672l-0.096-0.336v-0.096c-0.096-0.288-0.096-0.48-0.096-0.72v-0.288
			l0.144-1.104v-0.144c-0.048-0.336-0.144-0.432-0.144-0.624v-0.192l0.096-0.576l0.048-0.432v-0.24c0-0.288,0.048-0.48,0.096-0.672
			l0.097-0.24l0.144-0.528l0.192-0.672c0.096-0.336,0.096-0.528,0.191-0.672l0.145-0.24l0.24-0.432l0.336-0.528l0.144-0.288
			l0.192-0.768l0.144-0.384c0.097-0.336,0.192-0.48,0.336-0.768l0.192-0.336l0.288-1.056l0.384-0.864l0.048-0.048
			c0.145-0.24,0.288-0.48,0.433-0.624c0.096-0.144,0.24-0.288,0.432-0.432l0.288-0.144l0.336-0.432l0.145-0.144
			c0.191-0.288,0.336-0.384,0.384-0.432l0.096-0.096l0.528-0.432l0.48-0.384l0.384-0.288l0.479-0.384
			c0.24-0.24,0.433-0.336,0.576-0.336h0.192l0.576-0.384l0.336,0.384c0.192,0.24,0.144-0.768,0.432-0.912l0.097-0.048
			c0.288-0.144,0.479-0.24,0.624-0.288l0.288-0.048l0.768-0.432c0.288-0.144,0.432-0.192,0.624-0.24s0.384-0.048,0.528-0.048h0.24
			l0.912-0.48c0.287-0.144,0.479-0.192,0.672-0.24c0.24-0.096,0.479-0.096,0.768-0.096h0.528V9.485c0.288-0.192,0.48-0.24,0.72-0.24
			h0.336c0.288-0.096,0.528-0.144,0.721-0.144c0.144,0,0.336,0.048,0.527,0.096l0.288,0.048l0.624-0.096c0.288-0.048,0.48,0,0.673,0
			h0.288l0.479-0.048l0.576,0.048h0.096c0.288-0.048,0.576-0.048,0.769-0.048l0.288,0.048l0.336,0.048l0.144,0.048
			c0.336,0.048,0.528,0.096,0.721,0.24l0.191,0.144l0.433,0.144l0.527,0.096l0.528,0.192l0.576,0.192l0.864,0.336l0.144,0.048
			c0.288,0.096,0.433,0.096,0.624,0.192c0.145,0.048,0.288,0.144,0.433,0.24c0.144,0.096,0.336,0.192,0.432,0.384l0.145,0.24
			l0.672,0.672l0.096,0.048c0.24,0.144,0.432,0.288,0.624,0.432l0.24,0.192c0.24,0.096,0.528,0.24,0.768,0.384
			c0.24,0.192,0.385,0.336,0.48,0.48l0.624,0.624c0.24,0.192,0.384,0.384,0.48,0.576l0.144,0.288l0.384,0.384l0.145,0.096
			c0.24,0.192,0.384,0.24,0.479,0.384l0.145,0.192l0.384,0.384c0.192,0.24,0.336,0.384,0.432,0.528l0.145,0.192l-0.24,0.432
			c-0.191,0.336,0.576,0.24,0.624,0.384l0.096,0.24l0.576,1.152c0.192,0.288,0.288,0.432,0.288,0.576v0.192l0.528,0.864l0.144,0.336
			c0.097,0.288,0.192,0.432,0.192,0.576v0.192l0.288,0.624c0.096,0.288,0.145,0.48,0.096,0.72l-0.048,0.288
			c0.145,0.288,0.192,0.576,0.145,0.769l-0.048,0.336v0.576l0.144,0.72c0.048,0.192,0.048,0.336,0.048,0.528
			C178.442,27.199,178.394,27.343,178.346,27.535z M146.903,27.871c0.049,0.384,0,0.576-0.048,0.672l-0.144,0.192l0.191,0.72
			l0.049,0.48v0.048c0.096,0.336,0.191,0.528,0.144,0.624l-0.048,0.144l0.048,0.144c0.145,0.288,0.24,0.432,0.288,0.624l0.048,0.288
			l0.288,0.48c0.145,0.288,0.24,0.528,0.288,0.768l0.048,0.384l0.288,0.432c0.192,0.24,0.288,0.48,0.384,0.672l0.145,0.288
			c0.191,0.24,0.288,0.384,0.336,0.624l0.048,0.288l0.288,0.384l0.048,0.048c0.288,0.096,0.48,0.192,0.624,0.336l0.24,0.192
			l0.528,0.48l0.384,0.096c0.336,0.144,0.48,0.24,0.672,0.48l0.288,0.288l0.24,0.288l0.479,0.336l1.057,0.336l0.096,0.048
			c0.288,0.144,0.48,0.288,0.624,0.432l0.24,0.192l0.672,0.528l0.097-0.048c0.336,0,0.527,0,0.72,0.096l0.288,0.096l0.384,0.096
			l0.576,0.192l0.624,0.048c0.288-0.096,0.48-0.096,0.72-0.048l0.336,0.048l0.528-0.048c0.336,0,0.576,0,0.816,0.096l0.336,0.096
			c0.24-0.192,0.479-0.24,0.672-0.24h0.288l0.72,0.48l0.336-0.768c0.097-0.24,0.528-0.144,0.721-0.096l0.288,0.048l0.048-0.048
			c0.288-0.288,0.479-0.336,0.672-0.336h0.24l0.144-0.096c0.288-0.24,0.433-0.288,0.528-0.336l0.192-0.048l0.432-0.288l0.528-0.528
			l0.768-0.625l0.097-0.048c0.288-0.24,0.432-0.288,0.575-0.384l0.24-0.144l0.48-0.336l1.248-1.249l0.432-0.576l0.48-0.528
			c0.048-0.384,0.144-0.576,0.288-0.768l0.191-0.24v-0.192c0-0.384,0.097-0.624,0.288-0.912l0.336-0.48v-0.192
			c0.049-0.288,0.049-0.432,0.097-0.576s0.096-0.192,0.24-0.48l0.239-0.336l0.048-0.576l0.049-0.48v-0.096
			c-0.097-0.384-0.145-0.576-0.049-0.768l0.145-0.24l-0.048-1.008v-0.048c-0.097-0.336-0.192-0.48-0.145-0.672l0.048-0.24
			l-0.144-0.288c-0.144-0.288-0.192-0.48-0.192-0.672v-0.192l-0.288-1.008l-0.096-0.144l-0.191-0.672l-0.049-0.24l-0.048-0.576
			l-0.144-0.768l-0.433-0.192c-0.384-0.144-0.384-0.384-0.479-0.576l-0.097-0.24l-0.096-0.432l-0.336-0.432l-0.24-0.288
			l-0.432-0.576l-0.096-0.24l-0.24-0.24c-0.192-0.24-0.336-0.432-0.433-0.625l-0.191-0.336h-0.048
			c-0.337-0.096-0.528-0.144-0.673-0.336l-0.191-0.192l-0.385-0.144l-0.096-0.048c-0.288-0.144-0.528-0.288-0.72-0.528l-0.384-0.432
			l-0.576-0.192l-0.624-0.336c-0.24,0-0.433,0-0.576-0.096l-0.24-0.144l-0.576-0.24l-0.432-0.144l-0.145-0.624l-0.384,0.48
			c-0.24,0.288-0.528-0.048-0.768-0.192l-0.288-0.144h-1.057c-0.288,0.096-0.528,0.096-0.864,0.048L159,14.334l-0.384-0.048
			l-0.624,0.096l-0.145,0.048c-0.336,0.096-0.528,0.144-0.624,0.096l-0.192-0.048l-0.432,0.144l-0.672,0.288
			c-0.192,0.144-0.433,0.288-0.624,0.384l-0.288,0.096l-0.336,0.192l-0.48,0.192l-0.624,0.144l-1.056,0.576l-0.864,0.768
			c-0.096,0.144-0.24,0.24-0.48,0.432l-0.527,0.48l-0.048,0.048c-0.145,0.288-0.288,0.432-0.433,0.576l-0.24,0.144l-0.479,0.48
			v0.048c-0.145,0.288-0.336,0.48-0.48,0.576l-0.24,0.144v0.096c-0.096,0.336-0.239,0.528-0.384,0.624l-0.191,0.144l-0.24,0.48
			l-0.192,0.72l-0.096,0.432l-0.288,0.816l-0.145,0.672L147,24.655l-0.048,0.576l-0.049,0.48l0.049,0.192
			c0.048,0.288,0.048,0.48,0,0.672v0.192l-0.049,1.008V27.871z"/>
		<path fill="#222221" d="M189.478,45.152l-0.24-0.144V44.96c-0.239-0.24-0.384-0.432-0.432-0.672
			c-0.048-0.24-0.048-0.48-0.048-0.768l0.048-0.864L188.71,41.6c0-0.24,0.096-0.432,0.191-0.576l0.145-0.192l-0.096-0.72
			c-0.049-0.336-0.049-0.528,0-0.72l0.048-0.192l-0.145-0.624c-0.096-0.336-0.096-0.528,0-0.816l0.097-0.384v-0.048
			c-0.145-0.336-0.145-0.624-0.049-0.912l0.097-0.432v-0.528l-0.048-0.192c-0.049-0.288-0.049-0.576,0-0.864l0.096-0.528v-0.048
			c-0.048-0.384-0.048-0.576,0-0.768l0.096-0.24l0.048-0.48l-0.048-0.816c-0.048-0.288-0.144-0.576,0-0.672l0.336-0.192
			l-0.336-1.104l-0.048-0.096c-0.144-0.288-0.192-0.48-0.192-0.672l0.049-0.192l0.096-0.528l0.048-0.528l-0.048-0.144
			c-0.096-0.288-0.145-0.48-0.145-0.624l0.049-0.144v-0.192c0-0.336,0-0.576,0.096-0.672l0.096-0.144v-0.72l0.048-0.48
			c-0.144-0.288-0.239-0.528-0.191-0.672l0.096-0.24l0.096-0.576l-0.048-0.624c-0.144-0.192-0.24-0.336-0.191-0.624l0.096-0.336
			v-1.536l-0.048-0.528v-0.576c-0.097-0.288-0.145-0.384-0.145-0.576c-0.048-0.24,0-0.384,0-0.528v-0.24l-0.048-0.096
			c-0.096-0.336-0.096-0.528-0.048-0.816l0.096-0.336v-0.528l-0.048-0.528v-0.048c-0.096-0.288-0.144-0.528-0.144-0.624v-0.144
			l0.048-0.528l0.096-1.104l-0.048-0.144c-0.096-0.288-0.096-0.576-0.048-0.912l0.048-0.288c0.048-0.336,0.048-0.528,0.144-0.672
			c0.049-0.096,0.192-0.192,0.385-0.288l0.288-0.096l0.672-0.192c0.336-0.096,0.527-0.096,0.624-0.048h0.912
			c0.288-0.096,0.527-0.144,0.672-0.144l0.192,0.048l0.575-0.048l0.528-0.144l0.721-0.144c0.336-0.048,0.575-0.048,0.768,0
			l0.288,0.096l0.912-0.144h0.096c0.288,0,0.576,0,0.769,0.048l0.288,0.048l0.096-0.048c0.288-0.096,0.528-0.096,0.624-0.096h0.192
			l0.479-0.096l0.528-0.096h0.096c0.288,0,0.528,0,0.721,0.048l0.336,0.048h0.191c0.288-0.048,0.528-0.048,0.624-0.048l0.145,0.048
			l0.576-0.096c0.336-0.048,0.527,0,0.672,0.048l0.191,0.048c0.288-0.096,0.576-0.096,0.912-0.048l0.769,0.048h0.384
			c0.288,0.048,0.48,0.048,0.672,0.144l1.297,0.432l0.624,0.096l0.048,0.048c0.288,0.096,0.432,0.096,0.576,0.192l0.191,0.144h0.192
			c0.288,0.048,0.576,0.048,0.624,0.192l0.048,0.192c0.096,0.336,0.816,0.144,0.96,0.288l0.24,0.192l0.432,0.288h0.049
			c0.287,0.192,0.479,0.288,0.575,0.384c0.097,0.096,0.145,0.192,0.192,0.384l0.096,0.24l0.385,0.336l0.096,0.144
			c0.192,0.24,0.336,0.432,0.384,0.624l0.097,0.288l0.144,0.192c0.192,0.24,0.384,0.384,0.528,0.672
			c0.144,0.24,0.144,0.432,0.144,0.672v0.384c0.145,0.336,0.24,0.432,0.24,0.672v0.288c0.048,0.288,0,0.432,0,0.672v0.336
			l0.144,1.008l0.049,0.288l-0.049,0.72v0.096c0.049,0.384,0.049,0.48,0,0.624l-0.096,0.192l-0.048,0.48l-0.432,0.432
			c-0.192,0.192,0.239,0.288,0.048,0.576l-0.672,1.056l-0.385,0.48c-0.096,0.24-0.144,0.336-0.288,0.576
			c-0.144,0.192-0.239,0.336-0.336,0.384l-0.144,0.096l-0.097,0.144c-0.191,0.288-0.432,0.432-0.672,0.624l-0.191,0.144
			c-0.24,0.192-0.48,0.288-0.769,0.432l-0.479,0.192l-0.433,0.288l0.24,0.288l0.528,0.144c0.288,0.096,0.432,0.144,0.576,0.24
			l0.239,0.096c0.336,0.096,0.48,0.144,0.672,0.288l0.288,0.192l0.816,0.432l0.384,0.192l0.097,0.096
			c0.239,0.192,0.432,0.288,0.576,0.48l0.239,0.24l0.048,0.096l0.433,0.624l0.144,0.24l0.048,0.048
			c0.288,0.24,0.385,0.336,0.528,0.672l0.097,0.144c0.144,0.336,0.239,0.48,0.239,0.672v0.288c0.097,0.336,0.192,0.48,0.24,0.768
			l0.048,0.336c0.145,0.288,0.24,0.48,0.24,0.672v0.432c0.096,0.336,0.192,0.528,0.192,0.672c0,0.192,0,0.288-0.048,0.576
			l-0.097,0.336l0.048,0.528c0,0.288,0.049,0.48,0,0.768l-0.048,0.336c0,0.24,0.048,0.384,0,0.576l-0.048,0.192l-0.144,0.336
			c-0.097,0.288-0.145,0.432-0.24,0.576l-0.145,0.144c0.048,0.336,0,0.528-0.096,0.72l-0.144,0.288l-0.049,0.144
			c-0.144,0.336-0.239,0.432-0.336,0.528l-0.144,0.144l-0.145,0.192c-0.191,0.24-0.336,0.384-0.432,0.48l-0.145,0.096l-0.384,0.336
			l-0.864,0.624c-0.144,0.336-0.336,0.528-0.527,0.576l-0.288,0.048l-0.48,0.288l-0.384,0.192l-0.096,0.096
			c-0.288,0.24-0.385,0.288-0.576,0.384c-0.145,0.048-0.288,0.096-0.528,0.096h-0.384l-0.528,0.144l-0.48,0.048
			c-0.191,0.24-0.432,0.336-0.624,0.336h-0.287l-0.673-0.096l-0.432,0.144c-0.336,0.144-0.528,0.144-0.72,0.096l-0.24-0.048
			l-0.192,0.048c-0.336,0.048-0.576,0.048-0.72,0l-0.24-0.096l-0.048,0.048c-0.288,0.096-0.528,0.096-0.72,0.096l-0.337-0.048
			c-0.287,0.096-0.527,0.144-0.72,0.144h-0.24l-0.096,0.048c-0.336,0.096-0.624,0.096-0.912,0.048h-0.144
			c-0.336-0.048-0.528-0.048-0.624-0.144l-0.145-0.096l-0.672,0.048c-0.24,0.048-0.48,0.048-0.72-0.048l-0.337-0.144l-0.384-0.048
			l-0.576,0.096h-0.048h-0.768c-0.192,0-0.336-0.048-0.48-0.096l-0.192-0.048l-0.624,0.096l-0.048,0.048
			c-0.336,0.096-0.624,0.096-0.768,0l-0.24-0.144l-0.624,0.048c-0.336,0.144-0.528,0.192-0.672,0.096l-0.24-0.096h-0.144
			c-0.288,0.048-0.528,0.096-0.673,0.048l-0.239-0.048l-0.049,0.048c-0.287,0.096-0.575,0.144-0.912,0.096l-0.672-0.048
			C189.862,45.296,189.623,45.296,189.478,45.152z M194.231,39.968v0.192l0.576,0.48l0.479,0.048c0.24-0.096,0.48-0.144,0.769-0.192
			l0.815-0.096c0.192-0.048,0.385-0.048,0.528,0l0.288,0.048l0.192-0.048c0.336-0.144,0.479-0.144,0.624-0.144l0.239,0.048h0.145
			c0.288,0.048,0.479,0.096,0.672,0.192l0.24,0.096l0.096-0.048c0.384-0.096,0.576-0.096,0.672,0l0.192,0.144l0.48-0.096
			c0.336-0.048,0.575-0.048,0.815,0l0.384,0.096c0.288-0.096,0.48-0.096,0.721-0.048l0.336,0.096c0.192,0,0.432,0.048,0.672,0.096
			l0.336,0.048l0.48-0.096l0.384-0.192c0.288-0.144,0.528-0.192,0.72-0.24l0.336-0.096l0.433-0.144l1.248-0.528l0.336-0.192
			l0.528-0.432l0.239-0.384l0.288-0.48l0.288-0.528l0.192-0.48l0.384-0.912l-0.048-0.24c-0.048-0.336-0.096-0.672,0-0.72
			l0.576-0.336l-0.624-0.48c-0.096-0.336-0.145-0.432-0.145-0.672l-0.048-0.288l-0.048-0.048c-0.288-0.24-0.384-0.384-0.479-0.528
			l-0.097-0.288l-0.288-0.528l-0.912-0.912l-0.432-0.336l-0.48-0.288l-0.527-0.384h-0.048c-0.337,0-0.528-0.048-0.673-0.144
			l-0.239-0.144l-0.145,0.048c-0.288,0.048-0.528,0.096-0.672,0.048l-0.24-0.048l-1.008-0.24l-0.48-0.048l-0.096,0.048
			c-0.336,0.096-0.528,0.144-0.672,0.048l-0.145-0.096l-0.191,0.048c-0.288,0.096-0.528,0.096-0.673,0.096l-0.239-0.048h-1.681
			c-0.288,0-0.432,0.048-0.576,0l-0.191-0.048l-0.048,0.048c-0.337,0.144-0.576,0.144-0.816,0.048l-0.336-0.096
			c-0.24,0.144-0.433,0.24-0.576,0.24h-0.24l-1.248-0.096l-0.288,0.096l-0.624,0.192l-0.288,0.432l-0.191,0.576l0.048,0.432
			c0.048,0.336-0.145,0.48-0.048,0.72l0.048,0.144l-0.048,0.864c0,0.288-0.48-0.096-0.385,0.144l0.24,0.528l0.048,0.288
			c0.048,0.288,0.097,0.528,0.097,0.72s0,0.432-0.049,0.624l-0.096,0.288l0.096,0.912v0.192c0.049,0.336,0.049,0.48,0,0.72
			l-0.096,0.288l-0.096,0.48l0.24,0.912C194.231,39.632,194.231,39.776,194.231,39.968z M194.279,14.718l-0.096,0.384l0.048,0.912
			l0.048,0.48l0.048,1.008l0.048,0.72l-0.048,0.48l-0.432,0.336l0.432,0.24c0.288,0.144,0.048,0.528,0,0.864l-0.048,0.432v0.72
			l-0.048,0.576c0.096,0.24,0.144,0.48,0.096,0.672l-0.096,0.336l0.048,1.248l0.24,0.48l0.624,0.048c0.336,0,0.527,0,0.672,0.096
			l0.191,0.144l0.528-0.048l0.048-0.048c0.288-0.096,0.528-0.144,0.769-0.096l0.336,0.048h0.096
			c0.336-0.048,0.528-0.048,0.672,0.048l0.24,0.096l0.288,0.048c0.288,0,0.48,0,0.672,0.048c0.192,0.048,0.336,0.048,0.385,0.096
			l0.144,0.048l0.672,0.048l1.104,0.144l0.048-0.048c0.288-0.144,0.528-0.192,0.864-0.192h0.528l0.384-0.144l0.144-0.048
			c0.288-0.192,0.528-0.288,0.864-0.288h0.528c0.24-0.192,0.336-0.336,0.528-0.48c0.191-0.144,0.384-0.192,0.624-0.288l0.336-0.096
			l0.336-0.432c0.144-0.288,0.288-0.432,0.384-0.528l0.192-0.144l0.191-0.768l0.192-0.528l0.096-0.288l0.384-1.296v-0.096
			c-0.048-0.336-0.048-0.528,0-0.672l0.097-0.192l0.096-0.576l-0.336-0.96l-0.096-0.192c-0.145-0.288-0.433-0.576-0.288-0.672
			l0.384-0.288l-0.864-0.432l-0.24-0.336l-0.624-0.288c-0.288-0.144-0.432-0.192-0.576-0.336l-0.144-0.192l-0.672-0.096l-0.48-0.096
			l-0.527-0.096c-0.288-0.048-0.48-0.048-0.673-0.144l-0.239-0.096l-0.673-0.048c-0.288,0.144-0.576,0.192-0.912,0.192h-0.144
			c-0.336,0-0.528-0.096-0.672-0.192l-0.24-0.192l-0.432,0.048l-0.961,0.096h-0.527l-0.576,0.096l-0.816,0.096
			c-0.336,0-0.528,0-0.672-0.048l-0.192-0.096l-0.144,0.048c-0.288,0.096-0.528,0.144-0.769,0.144h-0.288l-0.911,0.096
			L194.279,14.718z"/>
		<path fill="#222221" d="M234.695,31.615v-0.048c-0.048-0.288-0.048-0.432-0.048-0.624v-0.24l-0.528-0.72l-0.096-0.096
			c-0.24-0.24-0.336-0.432-0.385-0.624l-0.096-0.288l-0.096-0.096c-0.288-0.24-0.433-0.384-0.48-0.48l-0.048-0.192l-0.24-0.48
			l-0.336-0.528c-0.144-0.144-0.288-0.288-0.432-0.48l-0.192-0.288c-0.24-0.24-0.432-0.384-0.479-0.528l-0.097-0.192l-0.191-0.576
			l-0.336-0.432l-0.145-0.144c-0.24-0.24-0.336-0.432-0.479-0.768c-0.145-0.288-0.24-0.48-0.288-0.672l-0.049-0.288l-0.048-0.096
			c-0.191-0.288,0.24-0.96,0.048-0.96h-0.575c-0.24-0.24-0.337-0.48-0.337-0.72v-0.288l-0.096-0.144
			c-0.192-0.24-0.336-0.432-0.384-0.576l-0.096-0.24c-0.24-0.24-0.385-0.48-0.48-0.768l-0.24-0.624l-0.048-0.048
			c-0.288-0.192-0.432-0.288-0.479-0.48l-0.097-0.24l-0.048-0.096c-0.24-0.192-0.384-0.336-0.48-0.432l-0.096-0.192l-0.144-0.192
			c-0.192-0.24-0.385-0.384-0.433-0.528l-0.096-0.24l-0.336-0.384l-0.096-0.048c-0.288-0.144-0.433-0.288-0.528-0.432l-0.145-0.24
			l-0.239-0.384l-0.192-0.48l-0.288-0.528l-0.048-0.048c-0.192-0.24-0.336-0.384-0.48-0.72l-0.336-0.672l-0.144-0.192
			c-0.192-0.24-0.336-0.432-0.48-0.768l-0.288-0.576c-0.191-0.336-0.288-0.624-0.191-0.72c0.096-0.096,0.336-0.192,0.672-0.24
			l0.528-0.048l0.432-0.144h0.096c0.336-0.096,0.576-0.144,0.721-0.048l0.239,0.144l0.145-0.048
			c0.336-0.144,0.576-0.192,0.864-0.192h0.144c0.288,0,0.48,0,0.672,0.048c0.192,0.048,0.385,0.096,0.528,0.24l0.24,0.192
			l0.144,0.048c0.336,0.144,0.576,0.288,0.721,0.624l0.048,0.096c0.144,0.288,0.191,0.48,0.24,0.672l0.048,0.288l0.336,0.336
			l0.336,0.48l-0.288,0.432c-0.192,0.24,0.624-0.048,0.72,0.096l0.145,0.192l0.336,0.432l0.432,0.432l0.192,0.24l0.576,0.96
			l0.288,0.576l0.336,0.384l0.048,0.048c0.192,0.288,0.288,0.432,0.384,0.672l0.145,0.24l0.191,0.48l0.288,0.432l0.385,0.672
			l0.144,0.288c0.192,0.192,0.384,0.384,0.528,0.624l0.288,0.48l0.432,0.576l0.144,0.24l0.049,0.096
			c0.191,0.24,0.288,0.384,0.384,0.576l0.144,0.24l0.049,0.096c0.336,0.24,0.479,0.384,0.575,0.768l0.049,0.24
			c0.096,0.288,0.096,0.528,0.096,0.672v0.24c0.24,0.192,0.432,0.384,0.432,0.576l0.048,0.24l0.912,0.336l0.433-0.144l0.336-0.432
			l0.24-0.288l0.048-0.192c0.144-0.336,0.288-0.48,0.432-0.624l0.192-0.192l0.479-0.816l0.049-0.192
			c0.096-0.288,0.239-0.48,0.336-0.624c0.096-0.144,0.239-0.24,0.384-0.384l0.24-0.192l0.048-0.192
			c0.096-0.288,0.144-0.528,0.336-0.768l0.288-0.432l0.384-0.48c0.096-0.336,0.192-0.48,0.288-0.576l0.145-0.144l0.479-0.624
			l0.288-0.336c0.048-0.24,0.192-0.384,0.288-0.528l0.432-0.72l0.288-0.624c0.145-0.336,0.288-0.48,0.433-0.672l0.672-0.672
			l0.336-0.528c0.145-0.24,0.288-0.432,0.384-0.528l0.192-0.192l0.048-0.096c0.192-0.24,0.288-0.384,0.432-0.528l0.192-0.192
			l0.192-0.48c0.096-0.288,0.239-0.48,0.384-0.672c0.144-0.192,0.288-0.288,0.432-0.336l0.24-0.096l0.48-0.144
			c0.288-0.096,0.479-0.144,0.624-0.144h0.24c0.336-0.048,0.575-0.048,0.815,0.048l0.384,0.096l0.673-0.192
			c0.191,0,0.288-0.048,0.479,0l0.192,0.048h0.479c0.336,0,0.576,0.048,0.721,0.192c0.144,0.144,0.239,0.288,0.288,0.432
			l0.048,0.288v0.048c0.048,0.432-0.048,0.624-0.192,0.768l-0.191,0.144l-0.24,0.528c-0.097,0.288-0.097,0.672-0.384,0.672
			l-0.721-0.048l0.528,0.336l-0.096-0.048l-0.528,0.528l-0.048,0.192c-0.097,0.336-0.192,0.528-0.336,0.624l-0.24,0.096l-0.048,0.24
			c-0.097,0.336-0.145,0.432-0.192,0.576l-0.192,0.288c-0.191,0.24-0.336,0.432-0.479,0.576l-0.24,0.192
			c-0.096,0.288-0.24,0.432-0.384,0.672l-0.192,0.336l-0.288,0.336l-0.288,0.432l-0.096,0.192c-0.144,0.336-0.24,0.48-0.288,0.528
			l-0.096,0.096l-0.097,0.192c-0.144,0.288-0.287,0.48-0.432,0.624l-0.192,0.24l-0.239,0.336l-0.336,0.432l-0.624,0.816
			l-0.049,0.144c-0.144,0.336-0.239,0.432-0.384,0.576l-0.191,0.192l-0.097,0.192c-0.096,0.288-0.144,0.528-0.24,0.672l-0.144,0.192
			l-0.048,0.048c-0.097,0.336-0.097,0.72-0.288,0.72h-0.48l0.24,0.24c0.24,0.24-0.24,0.432-0.432,0.72l-0.433,0.624
			c-0.144,0.336-0.24,0.432-0.336,0.576l-0.144,0.144l-0.288,0.48l-0.048,0.192c-0.097,0.336-0.192,0.48-0.336,0.672l-0.24,0.192
			l-0.336,0.48h-0.049c-0.096,0.288-0.191,0.432-0.287,0.576l-0.145,0.144l-0.624,0.912l-0.24,0.432l-0.24,0.288l-0.191,0.624
			c0.096,0.24,0.144,0.432,0.144,0.72v0.384l0.048,0.912c0.097,0.336,0.145,0.528,0.097,0.72l-0.048,0.288
			c0.096,0.336,0.144,0.48,0.096,0.672l-0.048,0.288l-0.097,0.528v0.48l0.049,0.144c0.096,0.288,0.191,0.576,0.191,0.912v0.288
			c0,0.288-0.048,0.48-0.048,0.624c0,0.144-0.048,0.24-0.096,0.432l-0.097,0.192l-0.096,0.432v0.096
			c0.096,0.288,0.145,0.528,0.096,0.816l-0.048,0.336l-0.096,0.768l-0.192,0.72l0.097,0.576c0.048,0.336,0,0.576-0.048,0.72
			l-0.049,0.288v0.048c-0.048,0.336-0.191,0.528-0.336,0.624l-0.191,0.144l-0.048,0.048c-0.24,0.24-0.528,0.384-0.816,0.48h-0.048
			c-0.336,0.096-0.528,0.144-0.673,0.096l-0.191-0.096l-0.576-0.096l-0.336,0.048h-1.248c-0.336,0-0.576-0.048-0.769-0.192
			c-0.144-0.096-0.239-0.24-0.239-0.336l-0.049-0.192l-0.048-0.288c-0.048-0.288-0.096-0.576-0.096-0.864v-0.096
			c0-0.336,0-0.432,0.048-0.576l0.096-0.192l-0.048-0.24c-0.048-0.288-0.048-0.48-0.048-0.672v-0.72c0-0.336,0-0.48,0.096-0.768
			l0.097-0.336l0.096-0.384l0.48-0.48l-0.528-0.288c-0.336-0.192,0.048-0.48,0.096-0.672l0.096-0.24
			c-0.048-0.24-0.096-0.48-0.096-0.672c0-0.192,0-0.288,0.096-0.528l0.145-0.288v-0.72c-0.048-0.24-0.096-0.528-0.096-0.816v-0.288
			c0-0.336,0.048-0.48,0.096-0.672l0.096-0.192l-0.048-0.576l-0.144-1.152L234.695,31.615z M234.455,6.173
			c-0.048-0.144,0-0.336,0.144-0.624l0.24-0.528l0.433-0.864c0.144-0.288,0.239-0.432,0.336-0.528l0.144-0.192l0.48-0.528
			l0.384-0.336l0.288-0.288l0.336-0.384l0.096-0.24c0.145-0.336,0.288-0.48,0.433-0.576l0.191-0.192l0.24-0.288
			c0.192-0.24,0.384-0.384,0.528-0.48c0.144-0.144,0.288-0.144,0.48-0.096l0.72,0.288c0.288,0.144,0.479,0.192,0.624,0.336
			l0.191,0.144l0.24,0.048c0.336,0.048,0.576,0.144,0.816,0.288s0.432,0.288,0.624,0.528c0.144,0.24,0.24,0.384,0.192,0.576
			c0,0.144-0.145,0.288-0.48,0.528l-0.624,0.384l-0.384,0.336v0.096c-0.145,0.336-0.288,0.48-0.433,0.528l-0.239,0.096l-0.097,0.144
			c-0.191,0.24-0.384,0.384-0.527,0.48l-0.192,0.096l-0.912,0.672c-0.192,0.24-0.384,0.432-0.672,0.576
			c-0.24,0.144-0.48,0.24-0.624,0.288c-0.145,0.096-0.336,0.144-0.624,0.192h-0.097c-0.336,0.048-0.575,0.096-0.72,0.048
			l-0.24-0.048l-0.527-0.24h-0.337C234.647,6.365,234.502,6.317,234.455,6.173z"/>
		<path fill="#222221" d="M275.831,45.489c-0.336,0-0.527,0-0.72-0.096l-0.288-0.096h-0.096c-0.288,0.096-0.528,0.144-0.624,0.144
			h-0.48c-0.288,0.048-0.576,0.096-0.864,0.048l-0.576-0.048h-0.191c-0.288,0-0.528,0-0.672-0.048h-0.336
			c-0.288,0.048-0.769,0.336-0.864,0.096l-0.288-0.576l-0.576,0.528c-0.24,0.24-0.48-0.096-0.576-0.144l-0.192-0.048h-0.048
			c-0.288,0.048-0.576,0.048-0.768,0l-0.288-0.048l-1.057-0.144l-0.191,0.096c-0.288,0.144-0.433,0.24-0.528,0.24
			s-0.288-0.048-0.576-0.096l-0.288-0.048c-0.288-0.048-0.479-0.096-0.576-0.144l-0.479-0.24c-0.192-0.144-0.24-0.288-0.288-0.432
			l-0.048-0.24L263.253,44c-0.096-0.288-0.191-0.576-0.144-0.912l0.048-0.48c-0.048-0.24-0.048-0.48,0.048-0.768l0.145-0.336
			c-0.097-0.24-0.097-0.432-0.048-0.624l0.144-0.24l-0.096-0.336c-0.097-0.288-0.145-0.48-0.145-0.624l0.048-0.192l0.145-0.624
			c-0.096-0.288-0.096-0.528-0.048-0.72l0.048-0.336l-0.096-0.624c-0.097-0.288,0.815-0.625,0.672-0.672l-0.672-0.24v-0.048
			c-0.097-0.288-0.145-0.528-0.145-0.672v-0.24l0.145-0.672l-0.049-0.096c-0.096-0.336-0.144-0.528-0.096-0.624l0.096-0.192
			l-0.096-0.24c-0.096-0.288-0.096-0.48-0.096-0.72v-0.864l0.048-0.432l0.096-0.912l0.048-0.624c0-0.288-0.048-0.432,0-0.624
			l0.049-0.192l0.096-0.288l-0.048-0.144c-0.048-0.336-0.097-0.528-0.097-0.816v-0.336l0.097-0.624l-0.048-0.24
			c-0.097-0.288-0.097-0.48-0.097-0.768c0-0.24,0.097-0.384,0.145-0.576l0.048-0.192l-0.192-1.248v-0.048
			c-0.048-0.288-0.096-0.48-0.048-0.672l0.048-0.192l0.145-0.72l-0.145-0.432l-0.096-0.432c-0.096-0.288-0.048-0.48,0-0.672
			l0.096-0.288l-0.144-0.576c-0.048-0.24-0.048-0.528,0-0.816l0.048-0.768l0.096-0.48c-0.048-0.24-0.24-0.624,0-0.72l0.769-0.384
			h-0.721c-0.288,0-0.144-0.576-0.096-0.72l0.048-0.24l-0.048-0.96v-0.144c-0.048-0.288-0.048-0.528,0-0.768l0.048-0.384v-0.624
			l-0.048-0.96v-0.96c0-0.384,0.048-0.576,0.145-0.72c0.096-0.192,0.239-0.288,0.384-0.384c0.144-0.096,0.288-0.144,0.479-0.192
			l0.288-0.048h0.385c0.287,0,0.527-0.048,0.72,0l0.24,0.048l0.768-0.048c0.288-0.096,0.528-0.144,0.864-0.048l0.48,0.144
			c0.336,0.096,0.479,0.192,0.624,0.288c0.144,0.096,0.288,0.336,0.288,0.72v0.528l-0.049,0.624l0.049,1.104l-0.097,0.624
			l-0.048,0.48l0.048,0.528l0.097,0.288c0.096,0.288,0.096,0.432,0.096,0.624c0,0.144,0,0.288-0.048,0.528l-0.048,0.336
			l-0.145,0.624l0.048,0.336c0.048,0.336,0.048,0.576,0,0.768l-0.096,0.336l-0.192,0.432l-0.096,0.336l0.096,1.104l0.048,0.432
			l0.049,0.672v0.048c0.048,0.288,0.048,0.528,0.048,0.624l-0.048,0.192l0.048,0.528l0.048,0.144c0.096,0.288,0.048,0.576,0,0.912
			l-0.096,0.672l-0.049,0.528l0.049,0.48l0.096,0.384l0.096,0.72c0.048,0.288-0.768,0.48-0.576,0.624l0.48,0.288v1.2l-0.048,0.336
			c0.048,0.288,0.144,0.624,0.096,0.912l-0.096,0.624l-0.097,0.336l0.097,0.576l0.048,0.048c0.048,0.288,0,0.576-0.048,0.864
			l-0.048,0.624l-0.049,0.528l0.049,0.048c0.144,0.336,0.191,0.576,0.191,0.72l-0.048,0.24l-0.144,0.576v0.288l-0.097,1.248v0.432
			c0,0.24,0,0.432-0.048,0.576l-0.096,0.24l-0.048,0.72l0.144,0.768l0.096,0.48h0.049c0.288,0.096,0.527,0.192,0.672,0.288
			l0.191,0.192l0.624,0.144h1.104l0.624,0.048l0.096-0.048c0.288-0.096,0.528-0.096,0.816-0.144l0.336-0.048
			c0.336-0.048,0.576,0,0.72,0.048l0.192,0.096l0.624-0.048h0.048c0.288-0.096,0.528-0.144,0.721-0.144h0.768
			c0.288,0,0.528,0,0.72,0.048c0.192,0.048,0.337,0.144,0.385,0.192l0.096,0.096l0.048,0.528c0,0.384,0.576-0.672,0.816-0.576
			l0.384,0.144l0.192-0.048c0.336-0.048,0.576-0.048,0.672,0l0.191,0.048l0.721-0.096h0.72c0.336,0,0.48,0,0.672,0.096l0.192,0.096
			l0.768-0.144l0.528-0.144l0.24-0.048c0.288-0.048,0.48,0,0.576,0h0.144l1.393,0.096h1.152l0.432,0.048
			c0.336,0,0.528,0.144,0.624,0.528l0.192,0.528l0.048,0.096c0.096,0.288,0.191,0.48,0.191,0.768v0.336c0,0.336,0.049,0.528,0,0.624
			l-0.048,0.192l-0.048,0.624c0,0.384-0.096,0.576-0.24,0.672c-0.191,0.144-0.288,0.144-0.384,0.192l-0.191,0.048l-0.145,0.048
			c-0.288,0.144-0.528,0.24-0.864,0.24h-0.432c-0.288,0-0.48,0.048-0.576,0h-0.145l-0.72-0.192l-0.096,0.048
			c-0.336,0.096-0.576,0.096-0.769,0.048l-0.288-0.048l-0.432-0.144l-0.672,0.048h-0.048c-0.336,0.048-0.528,0.048-0.624,0
			l-0.192-0.048l-1.2-0.096c-0.288,0.096-0.528,0.144-0.672,0.096l-0.192-0.048h-0.576l-0.575,0.192l-0.433,0.048l-0.576,0.096
			l-0.96-0.048H275.831z"/>
	</g>
</g>
</svg>
