<?xml version="1.0" encoding="utf-8"?>
<!-- Generator: Adobe Illustrator 16.0.0, SVG Export Plug-In . SVG Version: 6.00 Build 0)  -->
<!DOCTYPE svg PUBLIC "-//W3C//DTD SVG 1.1 Tiny//EN" "http://www.w3.org/Graphics/SVG/1.1/DTD/svg11-tiny.dtd">
<svg version="1.1" baseProfile="tiny" xmlns="http://www.w3.org/2000/svg" xmlns:xlink="http://www.w3.org/1999/xlink" x="0px"
	 y="0px" width="217.484px" height="372.222px" viewBox="0 0 217.484 372.222" xml:space="preserve">
<g id="Layer_2">
</g>
<g id="Layer_1">
	<g>
		<g>
			<g>
				<polyline fill="#EED3C8" points="142.012,144.31 161.199,122.247 177.918,135.216 181.652,144.2 190.145,160.192 
					192.891,170.438 194.639,183.937 193.638,194.686 190.887,204.685 189.387,216.685 185.137,224.935 181.637,233.435 
					175.137,241.685 169.387,247.31 163.887,252.185 159.637,252.185 142.637,234.435 				"/>
				<circle fill="#EED3C8" stroke="#222221" stroke-width="4" stroke-miterlimit="10" cx="108.871" cy="189.627" r="54.89"/>
				<circle fill="none" cx="108.871" cy="189.625" r="64.275"/>
				
					<text transform="matrix(0.7005 0.7136 -0.7136 0.7005 149.2861 139.0229)" fill="#222221" font-family="'RenosRough-Regular'" font-size="22">z</text>
				
					<text transform="matrix(0.5107 0.8598 -0.8598 0.5107 159.7207 149.394)" fill="#222221" font-family="'RenosRough-Regular'" font-size="22">a</text>
				
					<text transform="matrix(0.2699 0.9629 -0.9629 0.2699 168.3564 163.8003)" fill="#222221" font-family="'RenosRough-Regular'" font-size="22">h</text>
				
					<text transform="matrix(0.0186 0.9998 -0.9998 0.0186 172.9639 180.5146)" fill="#222221" font-family="'RenosRough-Regular'" font-size="22">r</text>
				
					<text transform="matrix(-0.2286 0.9735 -0.9735 -0.2286 173.3779 195.9214)" fill="#222221" font-family="'RenosRough-Regular'" font-size="22">a</text>
				
					<text transform="matrix(-0.4703 0.8825 -0.8825 -0.4703 169.5908 212.2432)" fill="#222221" font-family="'RenosRough-Regular'" font-size="22">d</text>
				
					<text transform="matrix(-0.6584 0.7527 -0.7527 -0.6584 162.3438 226.0591)" fill="#222221" font-family="'RenosRough-Regular'" font-size="22">y</text>
				<g>
					<path fill="#222221" d="M88.188,211.285c-0.377,0.378-0.989,0.378-1.367,0l-0.047-0.047c-0.378-0.378-0.378-0.989,0-1.367
						l57.323-57.323c0.377-0.377,0.989-0.377,1.367,0l0.047,0.047c0.378,0.378,0.378,0.99,0,1.367L88.188,211.285z"/>
					<g>
						
							<rect x="71.944" y="209.908" transform="matrix(0.7071 0.7071 -0.7071 0.7071 174.4533 0.6489)" fill="#222221" width="29" height="2"/>
						
							<rect x="93.368" y="220.782" transform="matrix(-0.7066 -0.7076 0.7076 -0.7066 2.2034 447.478)" fill="#222221" width="1.001" height="5.001"/>
						
							<rect x="89.125" y="216.54" transform="matrix(-0.7071 -0.7071 0.7071 -0.7071 -1.8848 437.2993)" fill="#222221" width="1" height="5"/>
						
							<rect x="85.59" y="213.004" transform="matrix(-0.7071 -0.7071 0.7071 -0.7071 -5.4201 428.7637)" fill="#222221" width="1" height="5"/>
						
							<rect x="81.347" y="208.762" transform="matrix(-0.7071 -0.7071 0.7071 -0.7071 -9.6623 418.5212)" fill="#222221" width="1" height="5"/>
						
							<rect x="77.812" y="205.226" transform="matrix(-0.7071 -0.7071 0.7071 -0.7071 -13.198 409.9854)" fill="#222221" width="1" height="5.001"/>
						
							<rect x="73.569" y="200.983" transform="matrix(-0.7071 -0.7071 0.7071 -0.7071 -17.4406 399.7426)" fill="#222221" width="1" height="5"/>
					</g>
				</g>
			</g>
			<path fill="#EED3C8" stroke="#222221" stroke-width="4" stroke-miterlimit="10" d="M136.377,142.134
				c-8.03,4.848-17.441,7.641-27.506,7.641c-10.064,0-19.476-2.793-27.506-7.641"/>
			<path fill="#EED3C8" stroke="#222221" stroke-width="4" stroke-miterlimit="10" d="M136.948,236.792
				c-8.216-4.901-17.815-7.725-28.078-7.725c-10.262,0-19.861,2.823-28.077,7.725"/>
		</g>
		<g>
			<g>
				<polygon fill="#EED3C8" points="70.137,243.185 50.137,222.185 35.637,234.685 27.387,257.435 24.137,280.185 26.637,305.435 
					35.887,324.685 46.637,339.935 57.637,348.685 78.637,362.935 102.637,370.185 107.387,370.435 111.137,344.685 
					111.887,329.185 83.137,270.935 				"/>
				<circle fill="#EED3C8" stroke="#222221" stroke-width="4" stroke-miterlimit="10" cx="108.871" cy="283.957" r="54.89"/>
				<circle fill="none" cx="108.872" cy="283.956" r="64.275"/>
				
					<text transform="matrix(-0.9888 -0.1495 0.1495 -0.9888 106.9272 348.6211)" fill="#222221" font-family="'RenosRough-Regular'" font-size="22.8112">p</text>
				
					<text transform="matrix(-0.901 -0.4338 0.4338 -0.901 88.293 345.3398)" fill="#222221" font-family="'RenosRough-Regular'" font-size="22.8112">r</text>
				
					<text transform="matrix(-0.7119 -0.7023 0.7023 -0.7119 70.5796 336.459)" fill="#222221" font-family="'RenosRough-Regular'" font-size="22.8112">o</text>
				
					<text transform="matrix(-0.4639 -0.8859 0.8859 -0.4639 55.1318 319.8848)" fill="#222221" font-family="'RenosRough-Regular'" font-size="22.8112">j</text>
				
					<text transform="matrix(-0.1998 -0.9798 0.9798 -0.1998 47.397 304.3096)" fill="#222221" font-family="'RenosRough-Regular'" font-size="22.8112">e</text>
				
					<text transform="matrix(0.104 -0.9946 0.9946 0.104 44.02 285.582)" fill="#222221" font-family="'RenosRough-Regular'" font-size="22.8112">k</text>
				
					<text transform="matrix(0.3788 -0.9255 0.9255 0.3788 46.5591 266.376)" fill="#222221" font-family="'RenosRough-Regular'" font-size="22.8112">t</text>
				
					<text transform="matrix(0.623 -0.7822 0.7822 0.623 53.5273 250.1396)" fill="#222221" font-family="'RenosRough-Regular'" font-size="22.8112">y</text>
			</g>
			<path fill="#EED3C8" stroke="#222221" stroke-width="4" stroke-miterlimit="10" d="M136.948,236.792
				c-8.216,4.901-17.815,7.725-28.078,7.725c-10.262,0-19.861-2.823-28.077-7.725"/>
		</g>
		<g>
			<g>
				<polygon fill="#EED3C8" points="64.97,128.184 42.637,150.184 22.637,116.851 25.304,91.851 27.97,69.517 38.304,46.851 
					51.304,36.184 68.304,21.517 86.304,15.184 106.97,9.184 118.97,11.184 131.637,13.851 145.637,18.851 153.304,24.851 
					156.97,32.851 149.97,46.517 147.304,55.851 				"/>
				<circle fill="#EED3C8" stroke="#222221" stroke-width="4" stroke-miterlimit="10" cx="108.871" cy="96.479" r="53.297"/>
				<path fill="none" d="M98.083,157.063c-33.947-5.958-56.639-38.31-50.682-72.259c5.957-33.948,38.309-56.639,72.256-50.681
					c33.951,5.957,56.641,38.307,50.684,72.257C164.383,140.329,132.032,163.021,98.083,157.063z"/>
				
					<text transform="matrix(-0.4668 -0.8844 0.8844 -0.4668 58.0522 132.9727)" fill="#222221" font-family="'RenosRough-Regular'" font-size="22.1488">O</text>
				
					<text transform="matrix(-0.2509 -0.968 0.968 -0.2509 49.4087 114.8848)" fill="#222221" font-family="'RenosRough-Regular'" font-size="22.1488"> </text>
				
					<text transform="matrix(-0.0442 -0.999 0.999 -0.0442 46.8799 106.1758)" fill="#222221" font-family="'RenosRough-Regular'" font-size="22.1488">z</text>
				
					<text transform="matrix(0.2067 -0.9784 0.9784 0.2067 46.4331 89.3232)" fill="#222221" font-family="'RenosRough-Regular'" font-size="22.1488">l</text>
				
					<text transform="matrix(0.4566 -0.8897 0.8897 0.4566 49.4507 74.7036)" fill="#222221" font-family="'RenosRough-Regular'" font-size="22.1488">a</text>
				
					<text transform="matrix(0.6406 -0.7679 0.7679 0.6406 56.5127 60.9482)" fill="#222221" font-family="'RenosRough-Regular'" font-size="22.1488">t</text>
				
					<text transform="matrix(0.8238 -0.5669 0.5669 0.8238 65.8027 49.4937)" fill="#222221" font-family="'RenosRough-Regular'" font-size="22.1488">o</text>
				
					<text transform="matrix(0.9516 -0.3075 0.3075 0.9516 82.4292 38.5488)" fill="#222221" font-family="'RenosRough-Regular'" font-size="22.1488">b</text>
				
					<text transform="matrix(0.9981 -0.0609 0.0609 0.9981 97.2046 33.77)" fill="#222221" font-family="'RenosRough-Regular'" font-size="22.1488">ý</text>
				
					<text transform="matrix(0.9816 0.1911 -0.1911 0.9816 114.1616 33.041)" fill="#222221" font-family="'RenosRough-Regular'" font-size="22.1488">l</text>
				
					<text transform="matrix(0.8958 0.4444 -0.4444 0.8958 128.8467 35.8096)" fill="#222221" font-family="'RenosRough-Regular'" font-size="22.1488">u</text>
				<g>
					<path fill-rule="evenodd" fill="#222221" d="M108.884,79.45c9.987,0.029,17.842,8.184,17.742,17.941
						c-0.099,9.647-7.952,17.57-17.757,17.574c-9.76,0.004-17.856-7.934-17.752-17.95C91.216,87.28,99.121,79.459,108.884,79.45z
						 M106.575,101.921c-0.154-0.319-0.154-0.319,0.105-0.493c0.899-0.605,1.659-1.359,2.33-2.203
						c1.151-1.447,1.973-3.077,2.62-4.798c1.084-2.885,1.803-5.86,2.124-8.928c0.063-0.603,0.072-1.212,0.095-1.818
						c0.011-0.275-0.125-0.384-0.391-0.32c-0.117,0.028-0.235,0.085-0.334,0.156c-2.924,2.09-5.099,4.771-6.405,8.134
						c-0.655,1.687-1.033,3.437-1.218,5.231c-0.11,1.068-0.159,2.14-0.064,3.213c0.036,0.402,0.078,0.802,0.122,1.244
						c-0.063-0.069-0.101-0.108-0.137-0.151c-1.782-2.146-3.913-3.864-6.386-5.152c-1.237-0.645-2.528-1.151-3.925-1.328
						c-0.346-0.043-0.697-0.064-1.044-0.06c-0.396,0.006-0.519,0.208-0.378,0.562c0.479,1.201,1.156,2.283,1.979,3.276
						c1.216,1.466,2.639,2.675,4.402,3.443c1.357,0.591,2.764,0.834,4.235,0.528c0.26-0.055,0.52-0.123,0.767-0.218
						c0.186-0.071,0.249,0.041,0.304,0.159c0.064,0.139-0.083,0.135-0.151,0.169c-0.245,0.122-0.497,0.232-0.744,0.352
						c-0.789,0.381-1.554,0.799-2.223,1.373c-0.678,0.582-1.189,1.275-1.431,2.147c-0.265,0.96-0.252,1.892,0.31,2.76
						c0.432,0.667,1.016,1.164,1.728,1.506c1.102,0.53,2.194,0.489,3.244-0.13c1.143-0.675,1.617-1.738,1.675-3.025
						c0.045-0.993-0.153-1.951-0.417-2.9c-0.017-0.057-0.021-0.117-0.035-0.195c0.054,0.021,0.08,0.025,0.099,0.038
						c0.853,0.554,1.803,0.749,2.803,0.752c0.871,0.003,1.721-0.149,2.561-0.365c1.39-0.355,2.712-0.902,4.046-1.415
						c1.703-0.654,3.363-1.4,4.897-2.399c0.803-0.524,1.562-1.104,2.258-1.765c0.204-0.194,0.188-0.299-0.062-0.431
						c-0.199-0.104-0.399-0.206-0.605-0.295c-1.677-0.727-3.437-0.872-5.233-0.726c-1.667,0.135-3.282,0.517-4.87,1.025
						c-2.075,0.666-4.037,1.586-5.928,2.663C107.061,101.672,106.816,101.793,106.575,101.921z"/>
					<path fill-rule="evenodd" fill="#222221" d="M123.225,99.236c-0.126,0.114-0.229,0.209-0.336,0.301
						c-0.964,0.828-2.019,1.524-3.151,2.095c-2.195,1.105-4.477,1.998-6.831,2.705c-0.936,0.281-1.898,0.436-2.88,0.374
						c-1.46-0.092-2.565-0.741-3.21-2.092c-0.052-0.11-0.102-0.19,0.059-0.274c0.95-0.499,1.88-1.036,2.842-1.51
						c2.104-1.037,4.3-1.823,6.615-2.242c1.598-0.289,3.201-0.395,4.81-0.076c0.638,0.127,1.257,0.318,1.846,0.595
						C123.061,99.146,123.131,99.186,123.225,99.236z"/>
					<path fill-rule="evenodd" fill="#222221" d="M113.073,84.317c-0.05,0.612-0.079,1.228-0.155,1.836
						c-0.329,2.59-0.914,5.121-1.787,7.584c-0.564,1.597-1.251,3.136-2.203,4.545c-0.66,0.98-1.431,1.858-2.373,2.579
						c-0.059,0.045-0.121,0.083-0.216,0.15c-0.022-0.117-0.045-0.209-0.058-0.302c-0.154-1.103-0.123-2.208-0.047-3.313
						c0.233-3.415,1.22-6.576,3.187-9.402c0.958-1.376,2.116-2.564,3.431-3.602c0.049-0.039,0.105-0.07,0.158-0.105
						C113.032,84.298,113.053,84.307,113.073,84.317z"/>
					<path fill-rule="evenodd" fill="#222221" d="M107.025,107.356c-0.011,0.564-0.073,1.117-0.297,1.637
						c-0.354,0.823-0.941,1.382-1.85,1.54c-0.385,0.067-0.768,0.013-1.127-0.129c-1.206-0.477-2.084-1.275-2.276-2.607
						c-0.144-0.998,0.165-1.909,0.8-2.698c0.468-0.581,1.07-0.997,1.718-1.345c0.504-0.272,1.027-0.51,1.537-0.771
						c0.146-0.076,0.211-0.036,0.29,0.096c0.622,1.03,0.937,2.161,1.116,3.336C106.984,106.726,106.997,107.042,107.025,107.356z"/>
					<path fill-rule="evenodd" fill="#222221" d="M94.573,95.169c0.402,0.08,0.788,0.139,1.164,0.234
						c1.399,0.355,2.688,0.967,3.91,1.724c1.924,1.192,3.636,2.632,5.071,4.391c0.061,0.076,0.119,0.153,0.199,0.255
						c-0.483,0.19-0.953,0.271-1.433,0.292c-1.23,0.054-2.376-0.268-3.445-0.85c-2.45-1.335-4.216-3.315-5.419-5.815
						c-0.018-0.038-0.032-0.077-0.045-0.116C94.569,95.268,94.573,95.251,94.573,95.169z"/>
				</g>
			</g>
			<path fill="#EED3C8" stroke="#222221" stroke-width="4" stroke-miterlimit="10" d="M136.377,142.134
				c-8.089-4.695-17.48-7.396-27.507-7.396c-10.026,0-19.416,2.701-27.505,7.396"/>
		</g>
	</g>
</g>
</svg>
