<?xml version="1.0" encoding="utf-8"?>
<!-- Generator: Adobe Illustrator 16.0.0, SVG Export Plug-In . SVG Version: 6.00 Build 0)  -->
<!DOCTYPE svg PUBLIC "-//W3C//DTD SVG 1.1//EN" "http://www.w3.org/Graphics/SVG/1.1/DTD/svg11.dtd">
<svg version="1.1" xmlns="http://www.w3.org/2000/svg" xmlns:xlink="http://www.w3.org/1999/xlink" x="0px" y="0px"
	 width="18.574px" height="18.574px" viewBox="0 0 18.574 18.574" enable-background="new 0 0 18.574 18.574" xml:space="preserve">
<g id="Layer_2">
</g>
<g id="Layer_1">
	<g id="XMLID_2392_">
		<g id="XMLID_2393_">
			<path id="XMLID_2398_" fill="#222221" stroke="#222221" stroke-miterlimit="10" d="M9.287,2.083c2.346,0,2.624,0.009,3.551,0.051
				c0.856,0.039,1.322,0.182,1.631,0.302c0.411,0.16,0.704,0.35,1.011,0.658c0.308,0.308,0.499,0.601,0.657,1.01
				c0.121,0.31,0.264,0.775,0.304,1.631c0.042,0.927,0.051,1.205,0.051,3.551s-0.009,2.625-0.051,3.551
				c-0.04,0.857-0.183,1.322-0.304,1.632c-0.158,0.41-0.35,0.703-0.657,1.01c-0.307,0.307-0.6,0.498-1.011,0.657
				c-0.309,0.121-0.774,0.264-1.631,0.303c-0.927,0.042-1.205,0.051-3.551,0.051c-2.347,0-2.624-0.009-3.551-0.051
				c-0.856-0.039-1.322-0.182-1.632-0.303c-0.41-0.159-0.703-0.35-1.011-0.657c-0.307-0.308-0.498-0.601-0.657-1.01
				c-0.12-0.31-0.263-0.775-0.303-1.632c-0.042-0.926-0.051-1.205-0.051-3.551s0.009-2.624,0.051-3.551
				c0.04-0.856,0.183-1.322,0.303-1.631c0.159-0.41,0.351-0.703,0.657-1.01c0.308-0.308,0.601-0.498,1.011-0.658
				c0.31-0.12,0.775-0.263,1.632-0.302C6.663,2.092,6.94,2.083,9.287,2.083 M9.287,0.5C6.9,0.5,6.601,0.51,5.664,0.553
				C4.729,0.596,4.09,0.744,3.53,0.961C2.953,1.186,2.463,1.486,1.975,1.975S1.186,2.954,0.961,3.531
				C0.744,4.09,0.595,4.729,0.553,5.665C0.51,6.602,0.5,6.901,0.5,9.287c0,2.387,0.01,2.687,0.053,3.624
				c0.042,0.935,0.191,1.574,0.408,2.133c0.225,0.577,0.525,1.067,1.014,1.556c0.488,0.488,0.979,0.789,1.556,1.014
				c0.56,0.217,1.198,0.366,2.134,0.408c0.937,0.043,1.236,0.053,3.623,0.053s2.686-0.01,3.623-0.053
				c0.935-0.042,1.573-0.19,2.133-0.408c0.577-0.225,1.067-0.525,1.557-1.014c0.488-0.489,0.789-0.979,1.014-1.556
				c0.217-0.559,0.366-1.198,0.408-2.133c0.042-0.937,0.053-1.237,0.053-3.624c0-2.386-0.011-2.686-0.053-3.623
				c-0.042-0.935-0.191-1.574-0.408-2.133c-0.225-0.577-0.525-1.067-1.014-1.556c-0.489-0.489-0.979-0.789-1.557-1.014
				c-0.56-0.217-1.198-0.366-2.133-0.409C11.973,0.51,11.674,0.5,9.287,0.5"/>
			<path id="XMLID_2395_" fill="#222221" stroke="#222221" stroke-miterlimit="10" d="M9.287,4.775c-2.492,0-4.513,2.02-4.513,4.512
				S6.795,13.8,9.287,13.8S13.8,11.779,13.8,9.287S11.779,4.775,9.287,4.775 M9.287,12.216c-1.618,0-2.929-1.312-2.929-2.929
				s1.311-2.929,2.929-2.929c1.617,0,2.929,1.311,2.929,2.929S10.904,12.216,9.287,12.216"/>
			<path id="XMLID_2394_" fill="#222221" stroke="#222221" stroke-miterlimit="10" d="M15.032,4.597
				c0,0.582-0.472,1.055-1.055,1.055s-1.055-0.473-1.055-1.055s0.472-1.055,1.055-1.055S15.032,4.015,15.032,4.597"/>
		</g>
	</g>
</g>
</svg>
