<?xml version="1.0" encoding="utf-8"?>
<!-- Generator: Adobe Illustrator 16.0.0, SVG Export Plug-In . SVG Version: 6.00 Build 0)  -->
<!DOCTYPE svg PUBLIC "-//W3C//DTD SVG 1.1//EN" "http://www.w3.org/Graphics/SVG/1.1/DTD/svg11.dtd">
<svg version="1.1" xmlns="http://www.w3.org/2000/svg" xmlns:xlink="http://www.w3.org/1999/xlink" x="0px" y="0px"
	 width="217.484px" height="372.222px" viewBox="0 0 217.484 372.222" enable-background="new 0 0 217.484 372.222"
	 xml:space="preserve">
<g id="Layer_2">
</g>
<g id="Layer_1">
	<rect x="190.637" y="-37.138" fill="none" width="448" height="51.986"/>
	
		<text transform="matrix(1 0 0 1 337.2954 -1.1074)" fill="#222221" font-family="'RenosRough-Regular'" font-size="48" letter-spacing="4">ZLATOBÝL</text>
	<g>
		<path fill="none" d="M98.083,157.063c-33.947-5.958-56.639-38.31-50.682-72.259c5.957-33.948,38.309-56.639,72.256-50.681
			c33.951,5.957,56.641,38.307,50.684,72.257C164.383,140.329,132.032,163.021,98.083,157.063z"/>
		<text transform="matrix(-0.5282 -0.8491 0.8491 -0.5282 60.8418 136.5)"><tspan x="0" y="0" fill="#222221" font-family="'RenosRough-Regular'" font-size="22.1488">O</tspan><tspan x="20.058" y="0.802" fill="#222221" font-family="'RenosRough-Regular'" font-size="22.1488" rotate="13.284"> </tspan><tspan x="28.946" y="2.63" fill="#222221" font-family="'RenosRough-Regular'" font-size="22.1488" rotate="25.271">z</tspan><tspan x="44.054" y="10.09" fill="#222221" font-family="'RenosRough-Regular'" font-size="22.1488" rotate="39.819">l</tspan><tspan x="55.577" y="19.606" fill="#222221" font-family="'RenosRough-Regular'" font-size="22.1488" rotate="54.974">a</tspan><tspan x="65.8" y="34.881" fill="#222221" font-family="'RenosRough-Regular'" font-size="22.1488" rotate="70.354">t</tspan><tspan x="71.017" y="49.014" fill="#222221" font-family="'RenosRough-Regular'" font-size="22.1488" rotate="86.285">o</tspan><tspan x="71.894" y="68.938" fill="#222221" font-family="'RenosRough-Regular'" font-size="22.1488" rotate="102.937">b</tspan><tspan x="68.02" y="85.141" fill="#222221" font-family="'RenosRough-Regular'" font-size="22.1488" rotate="118.394">ý</tspan><tspan x="59.681" y="99.924" fill="#222221" font-family="'RenosRough-Regular'" font-size="22.1488" rotate="132.905">l</tspan><tspan x="49.574" y="110.931" fill="#222221" font-family="'RenosRough-Regular'" font-size="22.1488" rotate="148.272">u</tspan></text>
		<circle fill="none" cx="108.871" cy="189.625" r="64.275"/>
		<text transform="matrix(0.7246 0.6892 -0.6892 0.7246 147.5459 137.6792)"><tspan x="0" y="0" fill="#222221" font-family="'RenosRough-Regular'" font-size="22">z</tspan><tspan x="15.23" y="-0.122" fill="#222221" font-family="'RenosRough-Regular'" font-size="22" rotate="14.242">a</tspan><tspan x="31.505" y="3.938" fill="#222221" font-family="'RenosRough-Regular'" font-size="22" rotate="29.277">h</tspan><tspan x="46.615" y="12.5" fill="#222221" font-family="'RenosRough-Regular'" font-size="22" rotate="43.884">r</tspan><tspan x="57.944" y="23.251" fill="#222221" font-family="'RenosRough-Regular'" font-size="22" rotate="58.345">a</tspan><tspan x="66.78" y="37.506" fill="#222221" font-family="'RenosRough-Regular'" font-size="22" rotate="73.212">d</tspan><tspan x="71.635" y="53.838" fill="#222221" font-family="'RenosRough-Regular'" font-size="22" rotate="87.608">y</tspan></text>
		<circle fill="none" stroke="#222221" stroke-width="4" stroke-miterlimit="10" cx="108.871" cy="189.627" r="54.89"/>
		<circle fill="none" cx="108.872" cy="283.956" r="64.275"/>
		
			<text transform="matrix(-0.9906 -0.1367 0.1367 -0.9906 107.7554 348.6396)" fill="#222221" font-family="'RenosRough-Regular'" font-size="22.8112">p</text>
		
			<text transform="matrix(-0.9066 -0.422 0.422 -0.9066 89.1035 345.6045)" fill="#222221" font-family="'RenosRough-Regular'" font-size="22.8112">r</text>
		
			<text transform="matrix(-0.721 -0.693 0.693 -0.721 71.2627 336.9482)" fill="#222221" font-family="'RenosRough-Regular'" font-size="22.8112">o</text>
		
			<text transform="matrix(-0.4754 -0.8797 0.8797 -0.4754 55.6089 320.5889)" fill="#222221" font-family="'RenosRough-Regular'" font-size="22.8112">j</text>
		
			<text transform="matrix(-0.2127 -0.9771 0.9771 -0.2127 47.6709 305.1152)" fill="#222221" font-family="'RenosRough-Regular'" font-size="22.8112">e</text>
		
			<text transform="matrix(0.0908 -0.9959 0.9959 0.0908 44.0498 286.4316)" fill="#222221" font-family="'RenosRough-Regular'" font-size="22.8112">k</text>
		
			<text transform="matrix(0.3788 -0.9255 0.9255 0.3788 46.5591 266.376)" fill="#222221" font-family="'RenosRough-Regular'" font-size="22.8112">t</text>
		
			<text transform="matrix(0.623 -0.7822 0.7822 0.623 53.5273 250.1396)" fill="#222221" font-family="'RenosRough-Regular'" font-size="22.8112">y</text>
		<circle fill="none" stroke="#222221" stroke-width="4" stroke-miterlimit="10" cx="108.871" cy="283.957" r="54.89"/>
		<circle fill="none" stroke="#222221" stroke-width="4" stroke-miterlimit="10" cx="108.871" cy="96.479" r="53.297"/>
		<g>
			<g>
				<path fill="#222221" d="M88.188,211.285c-0.377,0.378-0.989,0.378-1.367,0l-0.047-0.047c-0.378-0.378-0.378-0.989,0-1.367
					l57.323-57.323c0.377-0.377,0.989-0.377,1.367,0l0.047,0.047c0.378,0.378,0.378,0.99,0,1.367L88.188,211.285z"/>
				<g>
					
						<rect x="71.944" y="209.908" transform="matrix(0.7071 0.7071 -0.7071 0.7071 174.4533 0.6489)" fill="#222221" width="29" height="2"/>
					
						<rect x="93.368" y="220.782" transform="matrix(-0.7066 -0.7076 0.7076 -0.7066 2.2034 447.478)" fill="#222221" width="1.001" height="5.001"/>
					
						<rect x="89.125" y="216.54" transform="matrix(-0.7071 -0.7071 0.7071 -0.7071 -1.8848 437.2993)" fill="#222221" width="1" height="5"/>
					
						<rect x="85.59" y="213.004" transform="matrix(-0.7071 -0.7071 0.7071 -0.7071 -5.4201 428.7637)" fill="#222221" width="1" height="5"/>
					
						<rect x="81.347" y="208.762" transform="matrix(-0.7071 -0.7071 0.7071 -0.7071 -9.6623 418.5212)" fill="#222221" width="1" height="5"/>
					
						<rect x="77.812" y="205.226" transform="matrix(-0.7071 -0.7071 0.7071 -0.7071 -13.198 409.9854)" fill="#222221" width="1" height="5.001"/>
					
						<rect x="73.569" y="200.983" transform="matrix(-0.7071 -0.7071 0.7071 -0.7071 -17.4406 399.7426)" fill="#222221" width="1" height="5"/>
				</g>
			</g>
		</g>
		<g>
			<g>
				<path fill-rule="evenodd" clip-rule="evenodd" fill="#222221" d="M108.884,79.45c9.987,0.029,17.842,8.184,17.742,17.941
					c-0.099,9.647-7.952,17.57-17.757,17.574c-9.76,0.004-17.856-7.934-17.752-17.95C91.216,87.28,99.121,79.459,108.884,79.45z
					 M106.575,101.921c-0.154-0.319-0.154-0.319,0.105-0.493c0.899-0.605,1.659-1.359,2.33-2.203
					c1.151-1.447,1.973-3.077,2.62-4.798c1.084-2.885,1.803-5.86,2.124-8.928c0.063-0.603,0.072-1.212,0.095-1.818
					c0.011-0.275-0.125-0.384-0.391-0.32c-0.117,0.028-0.235,0.085-0.334,0.156c-2.924,2.09-5.099,4.771-6.405,8.134
					c-0.655,1.687-1.033,3.437-1.218,5.231c-0.11,1.068-0.159,2.14-0.064,3.213c0.036,0.402,0.078,0.802,0.122,1.244
					c-0.063-0.069-0.101-0.108-0.137-0.151c-1.782-2.146-3.913-3.864-6.386-5.152c-1.237-0.645-2.528-1.151-3.925-1.328
					c-0.346-0.043-0.697-0.064-1.044-0.06c-0.396,0.006-0.519,0.208-0.378,0.562c0.479,1.201,1.156,2.283,1.979,3.276
					c1.216,1.466,2.639,2.675,4.402,3.443c1.357,0.591,2.764,0.834,4.235,0.528c0.26-0.055,0.52-0.123,0.767-0.218
					c0.186-0.071,0.249,0.041,0.304,0.159c0.064,0.139-0.083,0.135-0.151,0.169c-0.245,0.122-0.497,0.232-0.744,0.352
					c-0.789,0.381-1.554,0.799-2.223,1.373c-0.678,0.582-1.189,1.275-1.431,2.147c-0.265,0.96-0.252,1.892,0.31,2.76
					c0.432,0.667,1.016,1.164,1.728,1.506c1.102,0.53,2.194,0.489,3.244-0.13c1.143-0.675,1.617-1.738,1.675-3.025
					c0.045-0.993-0.153-1.951-0.417-2.9c-0.017-0.057-0.021-0.117-0.035-0.195c0.054,0.021,0.08,0.025,0.099,0.038
					c0.853,0.554,1.803,0.749,2.803,0.752c0.871,0.003,1.721-0.149,2.561-0.365c1.39-0.355,2.712-0.902,4.046-1.415
					c1.703-0.654,3.363-1.4,4.897-2.399c0.803-0.524,1.562-1.104,2.258-1.765c0.204-0.194,0.188-0.299-0.062-0.431
					c-0.199-0.104-0.399-0.206-0.605-0.295c-1.677-0.727-3.437-0.872-5.233-0.726c-1.667,0.135-3.282,0.517-4.87,1.025
					c-2.075,0.666-4.037,1.586-5.928,2.663C107.061,101.672,106.816,101.793,106.575,101.921z"/>
				<path fill-rule="evenodd" clip-rule="evenodd" fill="#222221" d="M123.225,99.236c-0.126,0.114-0.229,0.209-0.336,0.301
					c-0.964,0.828-2.019,1.524-3.151,2.095c-2.195,1.105-4.477,1.998-6.831,2.705c-0.936,0.281-1.898,0.436-2.88,0.374
					c-1.46-0.092-2.565-0.741-3.21-2.092c-0.052-0.11-0.102-0.19,0.059-0.274c0.95-0.499,1.88-1.036,2.842-1.51
					c2.104-1.037,4.3-1.823,6.615-2.242c1.598-0.289,3.201-0.395,4.81-0.076c0.638,0.127,1.257,0.318,1.846,0.595
					C123.061,99.146,123.131,99.186,123.225,99.236z"/>
				<path fill-rule="evenodd" clip-rule="evenodd" fill="#222221" d="M113.073,84.317c-0.05,0.612-0.079,1.228-0.155,1.836
					c-0.329,2.59-0.914,5.121-1.787,7.584c-0.564,1.597-1.251,3.136-2.203,4.545c-0.66,0.98-1.431,1.858-2.373,2.579
					c-0.059,0.045-0.121,0.083-0.216,0.15c-0.022-0.117-0.045-0.209-0.058-0.302c-0.154-1.103-0.123-2.208-0.047-3.313
					c0.233-3.415,1.22-6.576,3.187-9.402c0.958-1.376,2.116-2.564,3.431-3.602c0.049-0.039,0.105-0.07,0.158-0.105
					C113.032,84.298,113.053,84.307,113.073,84.317z"/>
				<path fill-rule="evenodd" clip-rule="evenodd" fill="#222221" d="M107.025,107.356c-0.011,0.564-0.073,1.117-0.297,1.637
					c-0.354,0.823-0.941,1.382-1.85,1.54c-0.385,0.067-0.768,0.013-1.127-0.129c-1.206-0.477-2.084-1.275-2.276-2.607
					c-0.144-0.998,0.165-1.909,0.8-2.698c0.468-0.581,1.07-0.997,1.718-1.345c0.504-0.272,1.027-0.51,1.537-0.771
					c0.146-0.076,0.211-0.036,0.29,0.096c0.622,1.03,0.937,2.161,1.116,3.336C106.984,106.726,106.997,107.042,107.025,107.356z"/>
				<path fill-rule="evenodd" clip-rule="evenodd" fill="#222221" d="M94.573,95.169c0.402,0.08,0.788,0.139,1.164,0.234
					c1.399,0.355,2.688,0.967,3.91,1.724c1.924,1.192,3.636,2.632,5.071,4.391c0.061,0.076,0.119,0.153,0.199,0.255
					c-0.483,0.19-0.953,0.271-1.433,0.292c-1.23,0.054-2.376-0.268-3.445-0.85c-2.45-1.335-4.216-3.315-5.419-5.815
					c-0.018-0.038-0.032-0.077-0.045-0.116C94.569,95.268,94.573,95.251,94.573,95.169z"/>
			</g>
		</g>
	</g>
</g>
</svg>
