<?xml version="1.0" encoding="utf-8"?>
<!-- Generator: Adobe Illustrator 16.0.0, SVG Export Plug-In . SVG Version: 6.00 Build 0)  -->
<!DOCTYPE svg PUBLIC "-//W3C//DTD SVG 1.1//EN" "http://www.w3.org/Graphics/SVG/1.1/DTD/svg11.dtd">
<svg version="1.1" xmlns="http://www.w3.org/2000/svg" xmlns:xlink="http://www.w3.org/1999/xlink" x="0px" y="0px"
	 width="706.667px" height="74px" viewBox="0 0 706.667 74" enable-background="new 0 0 706.667 74" xml:space="preserve">
<g id="Layer_2">
</g>
<g id="Layer_1">
	<g>
		<path fill="none" stroke="#222221" stroke-width="4" stroke-miterlimit="10" d="M0,2c35.271,0,35.271,70,70.541,70
			c35.272,0,35.272-70,70.543-70c35.272,0,35.272,70,70.545,70C246.9,72,246.9,2,282.172,2c35.273,0,35.273,70,70.546,70
			c35.272,0,35.272-70,70.545-70c35.271,0,35.271,70,70.542,70c35.273,0,35.273-70,70.545-70c35.274,0,35.274,70,70.548,70
			c35.275,0,35.275-70,70.551-70S740.725,72,776,72"/>
	</g>
</g>
</svg>
