<?xml version="1.0" encoding="utf-8"?>
<!-- Generator: Adobe Illustrator 16.0.0, SVG Export Plug-In . SVG Version: 6.00 Build 0)  -->
<!DOCTYPE svg PUBLIC "-//W3C//DTD SVG 1.1//EN" "http://www.w3.org/Graphics/SVG/1.1/DTD/svg11.dtd">
<svg version="1.1" xmlns="http://www.w3.org/2000/svg" xmlns:xlink="http://www.w3.org/1999/xlink" x="0px" y="0px"
	 width="205.974px" height="205.974px" viewBox="0 0 205.974 205.974" enable-background="new 0 0 205.974 205.974"
	 xml:space="preserve">
<g id="Layer_2">
</g>
<g id="Layer_1">
	<circle fill="#EED63B" cx="102.987" cy="102.987" r="102.987"/>
	<rect x="5.745" y="140.151" fill="none" width="366" height="183.999"/>
	<text transform="matrix(1 0 0 1 27.1309 171.1172)"><tspan x="0" y="0" font-family="'RenosRough-Regular'" font-size="41.2519" letter-spacing="4">uzdravovat </tspan><tspan x="70.952" y="45" font-family="'RenosRough-Regular'" font-size="41.2519" letter-spacing="4">člověka i </tspan><tspan x="123.425" y="90" font-family="'RenosRough-Regular'" font-size="41.2519" letter-spacing="4">krajinu</tspan></text>
	<g>
		<line fill="none" stroke="#EED3C8" stroke-miterlimit="10" x1="59.405" y1="130.586" x2="192.475" y2="94.929"/>
		<line fill="none" stroke="#EED3C8" stroke-miterlimit="10" x1="71.679" y1="136.31" x2="201.135" y2="89.19"/>
		<line fill="none" stroke="#EED3C8" stroke-miterlimit="10" x1="84.447" y1="141.854" x2="209.302" y2="83.631"/>
		<line fill="none" stroke="#EED3C8" stroke-miterlimit="10" x1="97.689" y1="147.177" x2="216.995" y2="78.294"/>
		<line fill="none" stroke="#EED3C8" stroke-miterlimit="10" x1="111.385" y1="152.236" x2="224.234" y2="73.218"/>
		<line fill="none" stroke="#EED3C8" stroke-miterlimit="10" x1="125.511" y1="156.997" x2="231.045" y2="68.443"/>
		<line fill="none" stroke="#EED3C8" stroke-miterlimit="10" x1="140.039" y1="161.422" x2="237.452" y2="64.007"/>
		<line fill="none" stroke="#EED3C8" stroke-miterlimit="10" x1="154.936" y1="165.473" x2="243.488" y2="59.938"/>
		<line fill="none" stroke="#EED3C8" stroke-miterlimit="10" x1="170.172" y1="169.124" x2="249.188" y2="56.273"/>
		<line fill="none" stroke="#EED3C8" stroke-miterlimit="10" x1="185.706" y1="172.347" x2="254.588" y2="53.038"/>
		<line fill="none" stroke="#EED3C8" stroke-miterlimit="10" x1="201.504" y1="175.112" x2="259.725" y2="50.255"/>
	</g>
</g>
</svg>
